<?xml version="1.0" standalone="no"?>
<!DOCTYPE svg PUBLIC "-//W3C//DTD SVG 20010904//EN"
 "http://www.w3.org/TR/2001/REC-SVG-20010904/DTD/svg10.dtd">
<svg version="1.0" xmlns="http://www.w3.org/2000/svg"
 width="1000.000000pt" height="1000.000000pt" viewBox="0 0 1000.000000 1000.000000"
 preserveAspectRatio="xMidYMid meet">
<metadata>
Created by potrace 1.11, written by Peter Selinger 2001-2013
</metadata>
<g transform="translate(0.000000,1000.000000) scale(0.100000,-0.100000)"
fill="#000000" stroke="none">
<path d="M3170 7663 c0 -4 -28 -8 -63 -9 -101 -1 -149 -9 -159 -27 -5 -9 -19
-17 -31 -18 -12 0 -29 -3 -39 -7 -15 -6 -15 -11 -1 -47 8 -22 15 -46 15 -52 2
-18 41 -29 118 -32 22 -1 18 -5 -28 -36 -46 -31 -51 -38 -42 -55 6 -11 8 -20
4 -20 -3 0 -2 -6 4 -13 6 -7 16 -25 21 -40 10 -25 9 -27 -7 -18 -9 5 -34 23
-55 40 l-39 30 -48 -34 -48 -34 8 30 c5 16 7 29 4 29 -3 0 0 9 6 21 13 23 -5
83 -21 73 -5 -3 -9 0 -9 5 0 6 -6 11 -12 11 -7 0 -22 12 -32 27 -11 14 -15 23
-9 20 17 -11 97 -17 109 -9 12 9 35 82 28 93 -2 5 -15 4 -27 -1 -49 -19 -91
-23 -287 -24 -126 -1 -207 -5 -209 -11 -3 -5 -24 -22 -48 -37 -46 -29 -50 -37
-31 -56 7 -7 9 -12 6 -12 -4 0 0 -16 8 -35 20 -49 18 -60 -8 -37 -13 12 -36
32 -52 46 l-28 25 -32 -23 c-33 -25 -70 -41 -62 -28 3 5 8 24 11 43 3 19 8 42
11 51 8 25 -33 47 -79 41 -28 -4 -37 -9 -33 -20 5 -12 -1 -14 -35 -9 -22 3
-45 9 -51 12 -7 4 -8 2 -4 -4 4 -7 0 -12 -11 -13 -10 0 -38 -3 -63 -5 -25 -2
-81 -3 -125 -3 -101 1 -81 2 -215 -5 -63 -3 -130 -10 -149 -15 -19 -6 -37 -8
-42 -6 -4 3 -10 1 -14 -4 -3 -6 -13 -7 -23 -4 -15 6 -15 5 -3 -10 7 -9 17 -14
22 -11 5 3 14 2 20 -1 6 -4 -4 -17 -23 -31 -59 -42 -59 -42 -45 -67 16 -30 26
-36 51 -32 52 9 100 15 148 21 29 3 76 10 104 15 28 5 66 11 85 13 19 2 39 5
44 6 6 1 13 1 18 0 10 -4 44 -11 115 -25 12 -2 20 0 17 5 -3 5 -1 11 5 15 6 4
8 10 6 14 -6 9 14 85 20 78 3 -2 7 -14 9 -27 2 -12 8 -27 14 -34 5 -6 11 -22
13 -36 3 -26 20 -34 92 -45 l39 -7 -29 -25 c-16 -13 -35 -28 -42 -32 -14 -8
-8 -34 23 -113 11 -29 -7 -21 -53 23 l-43 42 -27 -20 c-15 -11 -37 -25 -49
-31 -20 -11 -21 -10 -17 10 3 13 7 34 10 48 2 14 7 30 9 37 8 24 -104 120
-121 103 -5 -5 -27 -12 -49 -14 -22 -2 -62 -9 -90 -15 -67 -15 -102 -21 -155
-26 -113 -12 -128 -18 -109 -41 6 -8 7 -14 2 -14 -5 0 -16 9 -26 20 -14 17
-21 18 -37 10 -11 -6 -20 -9 -20 -7 0 3 -26 -2 -57 -10 -32 -8 -62 -15 -68
-16 -5 -2 -16 -7 -24 -11 -21 -13 -2 16 21 32 11 8 17 19 15 25 -2 6 2 34 9
63 20 86 -13 112 -141 108 -44 -1 -80 -3 -80 -4 0 -1 -18 -3 -40 -5 -81 -6
-140 -18 -147 -29 -4 -6 -8 -7 -8 -1 0 6 -4 4 -8 -2 -7 -11 -31 -19 -65 -22
-4 -1 -6 -6 -5 -12 2 -6 -6 -13 -17 -15 -46 -7 -112 -28 -135 -43 -14 -9 -41
-24 -61 -34 -20 -11 -51 -32 -69 -48 -28 -26 -30 -32 -19 -47 11 -14 11 -15
-1 -4 -8 6 -17 12 -21 12 -12 0 -79 -74 -79 -87 0 -7 -4 -13 -9 -13 -10 0 -23
-41 -25 -80 -3 -33 44 -80 81 -81 15 -1 45 -1 66 -1 l38 1 -40 -39 -40 -40 24
-57 c20 -51 27 -59 65 -71 38 -13 46 -12 83 4 23 11 45 18 49 16 8 -2 9 0 13
33 1 11 5 43 8 71 7 50 6 51 -43 102 -53 55 -61 69 -32 57 9 -4 26 -9 37 -11
11 -2 29 -6 41 -9 16 -5 20 -2 21 17 1 70 4 88 14 88 5 0 7 -4 4 -10 -3 -5 -1
-10 4 -10 6 0 11 -8 11 -18 0 -10 3 -22 7 -26 5 -4 13 -22 19 -39 9 -28 18
-33 75 -48 35 -9 69 -14 74 -10 18 11 145 38 150 32 6 -10 -7 -25 -36 -39 -14
-7 -39 -26 -56 -42 -23 -22 -32 -26 -36 -15 -9 21 -117 4 -117 -19 0 -21 24
-36 40 -26 8 6 24 10 35 10 15 -1 11 -6 -17 -23 -29 -18 -34 -26 -27 -40 6 -9
7 -17 3 -17 -3 0 -1 -7 6 -15 21 -25 3 -17 -26 12 l-26 26 -52 -18 c-28 -10
-56 -22 -62 -26 -6 -5 -15 -5 -19 -1 -5 4 -5 2 -2 -4 4 -7 -4 -19 -18 -28 -14
-9 -25 -14 -25 -11 0 4 -7 -1 -16 -9 -14 -15 -35 -21 -57 -17 -5 1 -6 -3 -2
-9 3 -5 1 -10 -5 -10 -6 0 -8 -4 -5 -10 3 -5 2 -10 -3 -10 -5 0 1 -30 15 -67
l24 -68 -57 60 -56 60 -24 -28 c-22 -26 -22 -29 -7 -47 9 -11 22 -16 27 -12
20 13 49 7 52 -11 6 -40 58 -74 110 -71 18 0 62 13 98 28 36 14 73 26 81 26
16 0 21 -16 6 -22 -5 -1 -11 -12 -13 -23 -2 -15 2 -19 17 -17 11 2 17 1 13 -3
-3 -4 5 -32 19 -63 14 -31 23 -59 21 -62 -4 -7 62 -29 90 -29 33 -1 27 -26
-12 -51 -38 -23 -38 -29 -2 -114 25 -61 19 -62 -33 -7 -27 28 -52 51 -56 51
-4 0 -21 -11 -37 -25 -29 -25 -51 -26 -43 -2 3 7 6 33 9 60 3 41 1 50 -21 67
l-25 20 -44 -31 c-57 -39 -124 -107 -124 -125 0 -10 -13 -14 -42 -15 -24 -1
-47 0 -53 1 -11 2 -126 3 -167 1 -33 -1 -37 -27 -12 -66 l16 -25 -37 0 -36 0
32 -57 c17 -32 39 -64 47 -70 9 -7 13 -13 9 -13 -4 0 -3 -10 4 -21 9 -18 13
-19 21 -8 8 11 9 10 4 -4 -6 -20 11 -60 22 -53 4 2 9 -4 10 -15 1 -10 2 -25 3
-31 1 -7 -20 -51 -46 -96 -26 -46 -48 -94 -49 -107 0 -13 -4 -21 -7 -19 -4 2
-10 -3 -13 -12 -8 -21 -9 -20 12 -21 9 0 37 -4 62 -7 110 -15 111 -15 120 9
13 34 27 39 40 14 7 -12 8 -19 2 -15 -5 3 -13 -1 -16 -10 -5 -12 2 -15 42 -12
37 2 47 7 46 20 -1 10 2 15 7 12 5 -3 9 0 9 5 0 6 9 11 20 11 17 0 19 -3 10
-19 -15 -28 -13 -33 12 -29 12 2 28 13 34 26 9 18 13 20 22 9 7 -8 9 -17 5
-20 -3 -4 2 -8 13 -8 10 -1 34 -3 53 -5 40 -5 114 13 106 26 -3 5 4 11 15 15
11 3 20 11 20 16 0 6 4 7 10 4 12 -8 81 28 102 54 10 12 23 21 30 21 7 0 0
-13 -17 -27 -31 -27 -32 -36 -13 -82 6 -14 12 -29 13 -33 2 -5 3 -9 4 -10 2
-2 4 -14 7 -26 4 -22 2 -21 -22 7 -40 47 -61 56 -75 30 -8 -16 -8 -23 0 -29 7
-4 11 -11 10 -16 -5 -31 4 -64 25 -85 29 -30 30 -67 4 -134 -25 -64 -27 -139
-3 -165 11 -12 38 -22 67 -26 41 -6 49 -10 45 -24 -2 -10 3 -24 12 -31 18 -16
82 -39 121 -43 25 -3 108 -15 145 -21 11 -2 20 -4 20 -5 0 -1 14 -4 30 -5 17
-2 53 -6 80 -10 28 -4 59 -8 71 -8 18 -1 21 -7 19 -44 -2 -49 8 -55 27 -16 7
15 21 29 31 31 15 3 17 -9 17 -135 0 -95 -4 -143 -12 -151 -9 -9 -3 -12 30
-12 42 0 42 0 28 23 -10 16 -13 55 -12 147 1 112 3 125 19 128 13 3 22 -6 30
-27 15 -39 27 -40 27 -1 0 29 1 30 45 28 l45 -1 0 -137 c0 -92 -4 -140 -12
-148 -9 -9 6 -12 70 -12 l82 0 0 40 c0 22 -4 40 -10 40 -5 0 -10 -8 -10 -18 0
-27 -20 -42 -57 -42 l-33 0 0 64 c0 52 3 64 17 68 25 7 43 -1 43 -18 0 -8 5
-14 10 -14 6 0 10 20 10 45 0 46 -13 61 -23 26 -3 -13 -12 -18 -23 -16 -11 2
-22 4 -26 4 -5 1 -8 28 -8 62 l0 60 38 -3 c27 -2 40 -9 47 -25 14 -32 25 -29
25 6 0 34 10 44 30 31 8 -5 19 -5 25 0 6 5 17 5 25 0 12 -7 16 -39 18 -150 1
-90 -1 -140 -8 -140 -5 0 -10 -4 -10 -10 0 -5 17 -10 37 -10 29 0 34 3 25 12
-7 7 -12 38 -12 70 0 50 3 58 19 58 13 0 27 -20 49 -70 24 -54 36 -70 51 -70
l21 0 -20 37 c-11 21 -20 43 -20 49 0 6 -9 23 -20 37 -17 21 -18 27 -7 34 39
23 50 110 18 140 -10 10 -21 27 -25 39 -5 17 -2 20 16 18 13 -1 23 -3 23 -4 0
-7 109 -4 118 3 8 6 6 7 -5 3 -10 -3 -20 -2 -22 3 -3 4 0 8 7 9 7 0 28 4 47 7
19 4 48 8 65 9 24 2 32 9 42 37 23 66 17 91 -32 128 -25 18 -42 37 -39 42 3 5
10 6 17 2 17 -10 87 -9 88 2 0 5 2 17 4 25 2 8 7 28 10 45 3 16 8 31 10 34 4
3 21 -33 30 -64 15 -51 17 -53 53 -53 82 -1 80 1 35 -43 l-42 -41 16 -41 c9
-23 21 -45 26 -48 11 -8 55 -4 80 6 12 5 17 3 15 -6 -3 -13 38 -20 57 -10 6 3
15 6 20 6 6 0 10 6 10 14 0 13 16 17 100 24 17 2 45 11 64 20 44 22 83 23 75
2 -8 -19 22 -20 39 -2 22 23 17 35 -28 69 -24 18 -45 36 -45 40 0 3 20 5 45 4
52 -3 61 1 66 29 3 12 14 21 27 23 18 3 22 -1 22 -22 0 -28 2 -29 72 -27 28 1
50 -4 54 -11 4 -7 4 -10 0 -6 -8 7 -46 -26 -46 -40 0 -12 91 -5 120 9 3 1 10
3 15 4 6 1 18 5 28 10 11 4 23 3 29 -3 8 -8 5 -9 -11 -5 -12 3 -21 1 -21 -6 0
-14 16 -14 60 0 36 12 160 18 160 8 0 -3 -16 -13 -35 -22 -20 -9 -38 -24 -41
-32 -4 -8 -9 -13 -13 -11 -18 11 -104 16 -116 6 -9 -8 -15 -8 -20 -1 -4 7 -15
5 -33 -7 -14 -9 -38 -18 -52 -18 -48 -3 -55 -4 -69 -13 -11 -7 -11 -13 0 -32
18 -32 20 -49 6 -50 -7 0 -22 -2 -34 -3 -12 -1 -20 1 -17 6 3 4 14 8 24 8 10
0 22 5 26 12 4 6 3 8 -4 4 -6 -3 -14 -1 -18 5 -4 8 -9 7 -15 -2 -6 -10 -9 -8
-9 7 0 34 -64 38 -100 7 -35 -29 -38 -29 -32 2 5 30 5 30 -55 6 -53 -20 -114
-25 -110 -9 1 6 -4 13 -10 15 -7 3 -13 0 -13 -6 0 -6 -9 -11 -20 -11 -11 0
-20 -7 -20 -15 0 -8 -8 -15 -17 -16 -10 0 -27 -2 -38 -5 -11 -2 -38 -6 -60 -9
-22 -3 -56 -9 -75 -14 -19 -4 -47 -4 -61 1 -19 7 -38 5 -64 -6 -21 -9 -51 -16
-67 -16 -16 0 -46 -9 -68 -20 -39 -20 -39 -20 -45 0 -5 14 -15 20 -38 20 -24
0 -28 -3 -19 -12 8 -8 12 -56 12 -148 0 -92 -4 -140 -12 -148 -9 -9 -4 -12 26
-12 34 0 37 2 25 16 -9 11 -14 51 -14 130 -1 63 0 112 3 109 2 -2 28 -59 57
-127 29 -67 58 -124 64 -126 8 -3 11 34 11 126 l0 130 38 1 c42 1 77 7 92 16
6 3 14 4 18 1 10 -6 -39 -200 -61 -246 l-15 -30 34 0 c32 0 34 2 24 20 -7 12
-7 32 -2 52 7 30 12 33 50 36 40 3 42 2 44 -25 2 -46 -2 -67 -15 -75 -7 -4 6
-8 31 -8 45 0 47 1 32 28 -14 24 -59 233 -53 248 6 17 68 10 67 -8 -1 -8 4
-15 10 -15 6 0 19 -4 29 -8 9 -4 17 -3 17 2 0 5 10 9 23 8 21 -2 22 -6 25
-114 2 -75 -1 -118 -9 -127 -9 -12 -4 -14 31 -14 38 0 41 2 29 16 -10 12 -14
50 -15 125 -1 100 1 108 20 113 11 3 26 0 34 -6 8 -7 16 -8 20 -2 4 5 26 10
50 10 l42 2 0 -117 c0 -78 -4 -121 -12 -129 -9 -9 -4 -12 25 -12 34 0 48 12
29 24 -5 3 -8 56 -8 118 l1 113 55 3 55 3 -3 -93 c-3 -84 -1 -96 20 -128 47
-70 136 -43 153 47 8 45 8 136 0 162 -4 15 -1 20 12 19 10 0 23 0 28 2 6 1 22
2 38 1 l27 -1 0 -123 c0 -82 -4 -127 -12 -135 -9 -9 -4 -12 26 -12 34 0 37 2
25 16 -9 12 -14 51 -15 131 -1 62 0 112 1 111 2 -2 28 -59 57 -127 30 -69 60
-127 66 -129 9 -3 12 34 12 137 l0 141 33 1 c17 0 51 2 74 4 24 2 45 0 47 -4
6 -9 -56 -228 -72 -258 -12 -22 -11 -23 22 -23 34 0 35 1 26 25 -5 14 -7 39
-3 56 5 28 8 30 46 27 38 -3 42 -6 48 -35 4 -21 1 -39 -8 -53 -14 -19 -12 -20
26 -20 41 0 50 7 31 26 -10 10 -64 254 -57 261 3 2 37 6 76 8 67 5 71 4 76
-18 7 -34 0 -240 -9 -259 -7 -16 -1 -18 68 -18 l76 0 0 45 c0 53 -12 59 -25
13 -8 -27 -16 -34 -42 -36 l-33 -3 0 140 c0 127 2 141 18 142 18 1 33 4 42 8
3 1 39 4 80 6 41 3 98 7 125 10 28 3 86 8 130 10 44 3 100 7 125 9 25 3 79 7
120 11 96 7 168 13 255 22 39 3 91 7 117 7 25 1 45 4 43 7 -2 3 15 5 38 5 38
0 114 6 252 19 28 3 77 7 110 10 33 2 87 7 120 9 79 7 172 14 270 21 44 4 105
8 135 10 169 13 263 18 327 19 40 1 73 3 73 6 0 3 24 6 53 6 194 5 336 12 344
17 5 3 15 2 23 -3 8 -5 22 -4 33 2 15 7 18 7 12 -2 -5 -9 -3 -9 11 -2 20 10
904 13 904 3 0 -3 51 -7 113 -7 103 -1 170 -5 347 -20 36 -3 84 -6 108 -7 23
-1 42 -4 42 -7 0 -3 25 -5 56 -5 31 0 58 -3 60 -6 2 -3 21 -5 44 -5 22 1 40
-1 40 -4 0 -3 19 -7 43 -8 23 -1 53 -4 67 -7 35 -8 112 -17 133 -17 9 1 17 -2
17 -6 0 -4 17 -7 38 -6 20 0 41 -2 47 -5 5 -3 16 -6 25 -7 19 -2 85 -14 114
-20 52 -11 117 -17 194 -18 45 0 82 -3 82 -6 0 -3 24 -6 53 -6 46 -1 117 -6
250 -17 43 -4 35 12 -9 17 -16 2 -29 5 -29 6 0 3 -94 13 -132 14 -18 1 -33 4
-33 7 0 3 -23 7 -51 8 -29 1 -56 4 -62 8 -6 3 -29 7 -53 9 -23 1 -51 7 -63 13
-16 9 -21 9 -21 -1 0 -8 -3 -9 -8 -3 -4 6 -38 11 -77 11 -111 3 -155 7 -155
17 0 4 -4 6 -8 3 -5 -3 -32 1 -60 8 -28 8 -54 11 -58 7 -4 -3 -4 1 -2 9 3 8
12 13 19 11 8 -2 54 -5 102 -7 49 -2 92 -6 98 -9 5 -4 9 0 9 7 0 7 -12 14 -27
14 -16 1 -75 4 -133 8 -58 4 -141 10 -185 12 -94 6 -149 11 -152 14 -2 1 -11
3 -20 4 -10 1 -43 6 -73 11 -57 8 -122 15 -152 16 -10 0 -18 4 -18 9 0 5 21 8
48 5 26 -2 91 -7 146 -10 54 -4 117 -9 140 -11 22 -2 75 -6 116 -10 82 -6 125
-11 125 -14 0 -1 109 -9 178 -13 15 -1 27 -4 27 -7 0 -3 15 -5 33 -6 31 0 104
-8 177 -19 19 -2 53 -5 75 -6 22 -1 44 -4 50 -7 9 -6 33 -9 110 -13 22 -1 45
-4 50 -8 16 -9 55 -9 61 1 3 4 -2 8 -10 8 -9 0 -16 4 -16 9 0 5 14 8 30 7 16
0 30 -3 30 -6 0 -3 19 -6 43 -6 52 -2 102 -10 116 -18 9 -6 31 23 31 41 0 10
-125 49 -185 58 -94 13 -112 17 -150 33 -22 9 -42 19 -45 22 -3 3 -14 6 -25 8
-47 6 -80 14 -85 21 -3 3 -25 7 -49 9 -24 1 -48 5 -52 8 -16 9 3 32 31 37 57
12 61 113 5 139 -14 6 -26 18 -26 27 -1 9 -2 38 -3 64 l-2 48 50 -5 c28 -2 62
-7 76 -10 14 -3 43 -7 65 -10 22 -3 56 -8 75 -11 51 -8 160 -25 195 -30 71
-10 102 -16 140 -25 22 -5 61 -11 87 -14 41 -4 48 -2 53 15 7 22 4 29 -17 33
-7 1 -19 5 -26 10 -7 4 -23 9 -35 11 -12 2 -32 6 -44 9 -13 3 -33 8 -45 11
-60 13 -75 16 -98 20 -14 3 -36 7 -50 10 -14 3 -36 8 -50 11 -14 3 -38 7 -55
9 -28 5 -44 8 -97 20 -13 3 -43 7 -66 9 -74 6 -68 21 20 46 46 13 94 28 108
33 14 6 34 12 45 14 11 2 38 9 60 15 46 13 40 12 83 22 17 4 32 11 32 14 0 4
17 7 37 8 20 0 38 5 40 11 2 6 13 9 23 6 11 -3 20 -1 20 5 0 6 10 8 22 4 12
-3 19 -1 15 4 -3 6 7 9 24 8 16 -1 32 2 35 7 3 5 2 9 -3 8 -4 -1 -17 2 -27 6
-15 6 -5 12 45 24 43 11 65 21 67 33 4 20 -4 22 -156 54 -64 14 -127 27 -139
29 -28 7 -261 81 -336 107 -41 15 -57 26 -55 37 2 9 13 17 26 19 48 7 52 29
52 274 l0 228 -90 0 c-74 0 -91 -3 -99 -17 -10 -17 -10 -17 -11 0 0 15 -13 17
-138 17 -94 0 -142 -4 -150 -12 -9 -9 -12 -9 -12 0 0 17 -176 17 -182 0 -3 -7
-4 -28 -3 -45 1 -26 -2 -33 -17 -33 -16 0 -18 -10 -18 -114 0 -103 -2 -114
-17 -111 -10 2 -18 4 -18 5 0 2 -38 11 -52 12 -7 1 -13 5 -13 9 0 4 -8 7 -17
7 -10 -1 -28 2 -40 6 -13 4 -23 3 -23 -2 0 -9 78 -33 118 -35 12 -1 22 -5 22
-8 0 -4 9 -9 20 -12 18 -5 20 -14 20 -99 0 -93 8 -118 37 -118 8 0 18 11 23
25 6 15 17 25 30 25 24 0 46 33 55 83 8 41 8 41 35 27 19 -10 20 -25 19 -280
0 -270 -1 -277 -34 -270 -5 1 -20 4 -32 6 -12 2 -34 9 -48 14 -14 5 -25 7 -25
4 0 -4 -6 -2 -12 3 -7 6 -20 10 -28 10 -8 0 -39 7 -67 16 -29 9 -53 13 -53 10
0 -3 -6 0 -14 6 -8 6 -18 11 -22 10 -5 -1 -25 1 -44 5 -33 7 -38 13 -62 77
-27 71 -28 96 -2 33 16 -39 35 -41 44 -3 5 19 12 24 36 23 36 -2 101 -12 134
-20 14 -4 32 -8 40 -9 31 -5 86 -15 120 -21 24 -4 32 -2 25 5 -6 6 -22 12 -35
15 -14 2 -26 5 -27 7 -3 2 -3 2 -58 14 -22 4 -44 9 -50 11 -20 6 -60 15 -85
20 -14 3 -42 9 -62 15 l-37 10 4 202 c2 111 4 215 4 230 1 36 26 88 57 118 28
26 32 73 8 107 -14 20 -23 22 -119 22 -81 0 -107 -3 -119 -16 -17 -17 -49 -15
-128 9 -26 8 -49 12 -52 9 -3 -2 -12 1 -21 8 -8 7 -15 10 -15 7 0 -3 -17 -1
-37 4 -66 16 -77 19 -103 24 -14 3 -40 9 -58 14 -18 5 -35 10 -37 10 -3 1 -6
1 -7 2 -2 0 -12 2 -23 4 -11 2 -33 6 -50 10 -48 9 -86 14 -142 19 -29 3 -69 7
-90 10 -44 7 -138 16 -203 21 -25 2 -45 4 -45 5 0 1 -20 3 -45 5 -46 2 -185
13 -275 21 -27 3 -81 6 -120 9 -38 2 -113 6 -165 9 -290 17 -514 27 -650 30
-52 0 -98 6 -102 11 -5 6 -8 5 -8 -3 0 -7 -4 -11 -9 -8 -10 7 -244 14 -644 21
-148 3 -273 7 -278 10 -5 4 -9 0 -9 -7 0 -8 -3 -9 -8 -3 -4 6 -59 10 -129 10
-68 0 -123 4 -123 8 0 5 -5 5 -11 1 -13 -8 -89 -11 -89 -4 0 3 -82 6 -183 6
-246 2 -466 10 -473 17 -4 3 -7 69 -9 145 -1 76 -5 144 -9 150 -3 6 -3 13 2
16 5 3 7 23 5 46 l-3 40 113 -5 c61 -4 155 -8 207 -10 52 -3 142 -7 200 -10
58 -2 166 -7 240 -10 241 -10 393 -16 485 -20 280 -12 345 -12 357 2 8 10 23
12 50 8 21 -4 48 -8 61 -10 12 -2 33 -6 47 -9 63 -14 81 -17 180 -22 102 -5
185 -10 283 -17 27 -1 50 0 52 3 2 4 -1 7 -8 7 -15 0 -83 10 -117 18 -14 3
-41 8 -60 11 -19 4 -44 9 -55 11 -11 3 -30 6 -42 8 -56 8 -122 21 -125 25 -2
1 -23 4 -48 6 -25 3 -51 5 -57 6 -7 1 -13 5 -13 10 0 5 -4 7 -9 4 -5 -3 -33
-1 -62 5 -30 5 -72 12 -94 15 -22 2 -46 7 -53 9 -7 2 -31 7 -55 10 -67 9 -71
10 -82 16 -5 3 -25 5 -42 5 -18 -1 -33 2 -33 6 0 4 -8 7 -17 7 -21 -1 -127 11
-163 17 -32 5 -121 17 -137 17 -7 0 -13 3 -13 7 0 4 -10 6 -22 5 -11 -1 -44 2
-72 7 -28 5 -71 11 -96 15 -50 6 -75 11 -75 13 0 1 -18 3 -40 5 -22 2 -56 7
-75 10 -19 3 -48 8 -65 10 -16 3 -52 7 -78 9 -88 7 -62 16 41 14 55 -2 98 -6
96 -10 -2 -4 9 -3 25 2 16 4 32 6 35 3 3 -3 47 -7 98 -10 51 -2 120 -6 153 -8
33 -1 60 -3 60 -4 0 -1 31 -4 70 -6 38 -2 117 -6 176 -10 71 -4 109 -2 114 5
12 19 -63 33 -250 45 -27 2 -50 4 -50 6 0 3 -31 6 -115 14 -41 3 -95 8 -120
11 -25 2 -72 6 -105 9 -33 2 -87 6 -120 9 -142 13 -278 21 -515 32 -160 7
-182 10 -227 32 -40 21 -192 69 -243 78 -14 2 -38 6 -55 9 -16 3 -41 7 -55 10
-14 3 -67 7 -118 10 -51 2 -97 7 -102 10 -6 3 -10 3 -10 -2z m405 -133 c-3 -5
-2 -10 4 -10 6 0 8 -7 5 -15 -4 -8 -1 -15 5 -15 6 0 10 -3 9 -7 -2 -13 14 -63
21 -64 3 -1 28 -3 55 -5 27 -2 52 -6 55 -9 6 -6 -25 -31 -60 -47 -26 -11 -29
-35 -9 -63 12 -17 21 -65 12 -65 -5 0 -17 9 -27 20 -10 11 -24 20 -32 20 -7 0
-16 7 -19 15 -5 13 -12 12 -43 -7 -20 -12 -39 -26 -42 -31 -4 -5 -12 -7 -17
-3 -8 4 -6 20 4 49 16 46 6 82 -26 92 -9 3 -27 16 -39 29 l-22 24 38 -7 c21
-4 44 -6 51 -5 6 1 18 2 25 3 12 1 22 26 43 99 2 6 6 12 9 12 4 0 3 -4 0 -10z
m-2750 -188 c0 -4 11 -33 25 -65 21 -51 28 -58 63 -68 22 -6 48 -11 58 -12 11
-1 19 -4 19 -7 0 -10 -38 -38 -44 -33 -3 4 -6 1 -6 -5 0 -7 -7 -12 -15 -12
-16 0 -20 -30 -6 -45 9 -11 42 -105 36 -105 -1 0 -27 23 -56 52 -29 29 -55 46
-57 40 -2 -7 -9 -12 -16 -12 -7 0 -21 -9 -31 -20 -14 -15 -21 -17 -26 -8 -4 7
-5 16 -2 22 4 5 8 30 10 55 3 40 0 49 -22 65 -14 10 -25 25 -25 32 0 8 -6 14
-13 14 -7 0 -18 9 -25 20 -11 19 -10 20 10 16 13 -3 37 -9 55 -15 35 -10 44
-1 48 49 1 14 3 34 3 44 2 17 17 15 17 -2z m1724 -50 c17 -60 30 -72 91 -78
30 -3 56 -7 58 -9 2 -1 -18 -16 -43 -31 -25 -16 -45 -32 -45 -36 0 -4 9 -31
20 -60 11 -28 18 -54 15 -56 -5 -5 -75 51 -75 61 0 4 -11 7 -25 7 -14 0 -25
-4 -25 -8 0 -9 -35 -28 -55 -31 -13 -1 -14 20 -2 37 5 6 7 12 3 12 -3 0 -1 11
4 25 10 26 10 26 -67 93 -13 11 -23 21 -23 24 0 6 33 4 45 -3 6 -3 23 -5 38
-5 22 1 32 8 41 31 7 17 12 38 10 48 -5 34 25 16 35 -21z m699 -59 c-1 -4 3
-18 10 -30 7 -13 9 -23 5 -23 -4 0 -2 -5 5 -12 7 -7 29 -13 50 -14 20 -1 45
-3 55 -3 27 -2 20 -14 -23 -40 -49 -31 -52 -38 -30 -86 24 -52 16 -71 -17 -41
-52 49 -65 51 -114 18 -24 -17 -45 -29 -46 -28 -1 1 5 26 14 56 l16 54 -31 27
c-16 15 -38 31 -47 37 -10 5 -15 15 -11 21 4 6 12 8 18 5 6 -4 28 -8 49 -9 43
-3 48 4 62 75 3 14 6 26 6 28 1 2 8 -3 16 -12 9 -8 14 -19 13 -23z m-1688
-140 c7 -18 19 -32 28 -32 10 0 26 -2 37 -5 11 -2 28 -5 38 -5 27 -1 20 -16
-23 -45 l-40 -26 25 -65 c13 -36 21 -65 17 -65 -5 0 -26 18 -47 40 -21 22 -46
40 -54 40 -8 0 -29 -11 -47 -25 -39 -30 -40 -30 -40 -5 0 11 3 20 6 20 3 0 6
21 5 48 0 41 -3 47 -20 46 -19 -1 -79 -12 -100 -18 -5 -1 -30 -8 -55 -15 -25
-6 -58 -19 -73 -27 -22 -12 -40 -14 -75 -8 -26 4 -53 6 -59 5 -7 -1 -13 2 -13
7 0 6 17 13 38 17 20 5 42 9 47 11 31 9 156 35 188 40 21 3 46 7 55 9 9 2 22
4 27 4 6 1 -5 14 -22 30 -34 29 -34 48 -2 30 11 -5 19 -7 19 -5 0 3 11 1 24
-4 41 -15 58 11 66 105 1 10 29 -46 50 -102z m666 -65 c20 -62 30 -74 64 -73
14 0 38 -2 55 -5 l30 -5 -42 -30 c-42 -29 -56 -66 -33 -80 6 -4 8 -10 5 -15
-3 -5 -1 -11 5 -15 6 -4 8 -10 5 -15 -3 -5 -1 -11 5 -15 5 -3 10 -11 10 -16 0
-11 -41 16 -80 53 l-25 24 -42 -30 c-24 -16 -45 -28 -47 -25 -2 2 1 30 7 62 7
41 7 61 0 65 -36 24 -82 66 -77 73 2 4 17 5 32 2 28 -5 49 -7 69 -4 6 0 14 24
18 51 4 28 11 50 15 50 5 0 16 -24 26 -52z m679 -46 c2 -11 8 -28 13 -38 6
-11 13 -27 16 -36 5 -17 15 -19 104 -21 31 -1 28 -8 -23 -42 -42 -28 -61 -65
-33 -65 6 0 9 -3 5 -6 -3 -4 0 -22 9 -42 8 -19 13 -36 11 -38 -1 -2 -22 13
-46 32 -24 18 -49 34 -54 34 -15 0 -77 -43 -77 -53 0 -5 -4 -6 -10 -2 -6 4 -6
15 0 30 5 14 7 25 4 25 -3 0 -2 5 2 12 10 16 14 58 6 58 -4 0 -27 18 -51 39
l-44 38 63 -1 c48 -1 64 2 66 14 16 78 22 96 30 87 3 -2 6 -13 9 -25z m716
-90 l12 -47 54 0 c30 1 56 -2 58 -5 2 -4 -16 -21 -41 -38 -39 -28 -43 -35 -34
-52 6 -11 9 -20 6 -20 -3 0 1 -12 9 -27 22 -41 7 -47 -35 -13 -46 36 -54 37
-96 5 -44 -33 -57 -33 -43 3 6 15 13 41 15 57 4 27 -1 34 -36 55 -60 38 -57
48 10 45 l57 -3 13 54 c16 64 32 59 51 -14z m-2396 -12 c-3 -4 2 -13 10 -20 8
-7 15 -23 15 -35 0 -27 15 -40 51 -43 15 -2 39 -7 55 -11 l28 -7 -42 -30 c-23
-16 -42 -34 -42 -41 0 -12 21 -66 41 -105 15 -30 -3 -20 -54 28 l-49 45 -31
-24 c-52 -38 -56 -40 -52 -15 17 107 20 98 -37 156 -58 59 -59 58 37 37 25 -5
31 -3 33 12 1 10 4 27 6 38 2 11 5 29 6 40 1 20 1 20 15 1 8 -10 12 -22 10
-26z m694 -132 c21 -73 35 -82 141 -87 9 -1 6 -7 -10 -18 -55 -38 -70 -57 -64
-76 8 -26 -23 -48 -52 -35 -17 8 -27 5 -48 -13 -36 -31 -59 -34 -50 -6 4 12 8
31 8 42 1 11 5 25 9 32 4 7 -13 30 -43 59 -51 48 -64 72 -32 56 30 -15 92 -15
97 0 4 13 13 62 14 86 2 25 18 3 30 -40z m674 -90 c-2 -5 0 -8 5 -8 6 0 13
-11 16 -25 4 -14 14 -26 24 -26 9 -1 31 -3 47 -4 17 -2 36 -3 44 -4 17 -1 -26
-41 -44 -41 -19 0 -43 -32 -47 -63 -4 -28 -10 -31 -40 -21 -11 3 -30 -6 -50
-25 -17 -16 -35 -28 -39 -25 -4 2 -3 21 1 41 5 20 7 40 4 44 -2 4 1 11 7 15 8
4 -4 20 -32 45 -24 21 -47 39 -51 39 -5 0 -8 4 -8 9 0 5 24 7 54 4 59 -5 65
-1 72 50 9 57 15 65 29 32 7 -16 11 -33 8 -37z m4165 19 c8 -6 12 -6 12 2 0 7
4 10 8 7 5 -3 19 -7 33 -10 13 -3 35 -7 49 -10 14 -3 48 -10 75 -16 28 -5 61
-12 75 -15 14 -3 39 -8 55 -10 17 -3 46 -7 65 -11 19 -3 41 -6 48 -7 6 0 12
-3 12 -7 0 -4 12 -7 28 -8 15 0 29 -1 32 -2 3 -1 14 -4 25 -6 98 -18 116 -22
122 -28 4 -4 -27 -6 -70 -5 -43 1 -80 6 -83 10 -3 5 -13 5 -23 -1 -12 -6 -21
-6 -28 1 -6 6 -23 12 -39 14 -16 2 -29 4 -29 5 0 2 -80 12 -110 14 -11 0 -22
4 -25 7 -3 4 -35 9 -71 13 -37 3 -73 8 -80 10 -8 3 -29 7 -48 10 -19 3 -38 11
-42 18 -5 7 -9 9 -9 4 0 -11 -29 25 -30 36 0 9 29 -1 48 -15z m-5841 6 c-4 -3
-3 -11 2 -17 5 -6 14 -29 21 -51 7 -22 17 -46 23 -52 7 -10 3 -13 -17 -13 -27
0 -28 -4 -29 -62 0 -21 -5 -28 -19 -28 -15 0 -19 -6 -18 -27 4 -50 0 -63 -16
-63 -9 0 -12 5 -8 11 4 7 9 35 11 63 4 46 1 55 -24 79 -15 14 -39 38 -53 52
l-25 26 30 -6 c17 -4 42 -11 57 -15 24 -8 29 -6 34 14 8 33 12 59 13 79 1 9 6
17 13 17 6 0 8 -3 5 -7z m2373 -95 c0 -9 8 -22 18 -27 12 -8 -7 -11 -75 -12
-51 -1 -98 -2 -105 -3 -6 -1 -13 4 -15 11 -3 8 12 10 52 7 40 -3 56 -1 59 8 2
7 7 22 12 33 7 21 10 30 13 55 2 18 40 -48 41 -72z m4598 -33 c3 -3 -9 -5 -27
-5 -18 0 -30 4 -26 9 5 10 43 7 53 -4z m-4468 -11 c0 -2 -9 -8 -20 -14 -15 -8
-21 -7 -29 8 -9 16 -6 18 20 14 16 -2 29 -6 29 -8z m-1796 -78 c8 -40 34 -52
120 -55 17 -1 14 -6 -13 -28 -19 -16 -36 -27 -39 -25 -10 6 -19 -32 -12 -48
22 -44 41 -100 35 -100 -2 0 -23 18 -47 40 -24 22 -48 40 -53 40 -7 0 -11 39
-10 109 0 109 7 132 19 67z m2076 34 c3 -1 14 -1 25 0 19 1 19 0 -3 -22 -21
-21 -24 -21 -33 -6 -8 15 -12 15 -36 3 -15 -8 -31 -11 -36 -8 -5 3 -26 5 -48
5 -26 -1 -39 4 -39 13 0 7 4 15 10 17 11 3 151 2 160 -2z m3939 -4 c8 -2 17
-9 19 -17 2 -8 0 -10 -5 -4 -4 6 -21 11 -37 12 -16 1 -34 7 -39 12 -7 7 0 8
19 5 16 -3 36 -7 43 -8z m551 1 c0 -4 6 -7 13 -6 49 6 62 -14 27 -44 -20 -17
-29 -64 -10 -52 5 3 7 0 4 -8 -3 -8 5 -24 17 -36 l22 -21 -34 10 c-19 6 -35
10 -36 10 -1 0 -11 30 -24 68 -12 37 -24 72 -26 78 -3 7 6 11 21 10 14 0 26
-5 26 -9z m-3930 -17 c0 -5 14 -10 31 -10 17 0 28 4 24 10 -3 6 4 10 17 10 31
0 51 -32 39 -63 -10 -27 8 -74 27 -70 19 4 32 -59 32 -162 1 -133 0 -158 -5
-163 -7 -8 -224 -9 -220 -2 3 5 5 110 6 234 l1 226 24 0 c13 0 24 -4 24 -10z
m3429 -3 c8 -10 7 -14 -2 -14 -8 0 -14 6 -14 14 0 7 1 13 2 13 2 0 8 -6 14
-13z m-4264 -17 c-34 -7 -46 -3 -26 9 7 5 23 6 35 3 19 -6 18 -7 -9 -12z
m4273 -6 c30 -5 42 -3 42 7 0 7 2 10 5 7 10 -10 -18 -58 -29 -50 -6 3 -18 7
-26 9 -8 1 -33 7 -55 14 -22 6 -47 13 -55 16 -12 3 -12 6 -1 12 8 5 28 5 45
-1 17 -5 50 -11 74 -14z m-4025 -30 c3 -3 -14 -45 -38 -92 -40 -82 -76 -174
-74 -190 3 -17 -14 -51 -28 -56 -8 -3 -11 -1 -8 4 4 6 8 23 11 38 3 15 7 34
11 42 11 28 11 40 0 40 -7 0 -28 14 -47 30 -32 28 -41 30 -112 30 l-78 0 0 28
c0 15 9 46 20 70 l19 42 58 1 c79 2 141 0 185 -5 25 -3 38 0 42 10 5 14 28 19
39 8z m1694 -6 c4 -7 8 -20 10 -28 1 -8 13 -24 27 -35 20 -16 26 -30 26 -58 0
-26 4 -36 12 -31 8 5 8 3 2 -7 -13 -21 -14 -132 0 -148 8 -12 8 -13 -2 -7 -9
5 -13 3 -11 -5 7 -55 9 -54 -141 -55 l-140 -1 0 173 c0 169 1 174 23 188 14 9
43 13 79 12 31 -2 63 1 70 5 19 12 36 11 45 -3z m-1431 -70 c19 -12 37 -33 40
-45 3 -12 12 -27 20 -34 8 -6 14 -20 14 -31 0 -10 4 -17 9 -14 5 3 9 -4 9 -17
0 -21 22 -117 29 -126 1 -2 11 2 20 10 17 13 17 13 1 -7 -10 -11 -18 -29 -18
-40 0 -17 -7 -20 -57 -19 l-58 0 -1 75 c-4 169 -7 191 -23 189 -54 -5 -60 -1
-54 39 3 20 11 48 16 62 10 24 11 24 14 3 2 -11 20 -32 39 -45z m2429 50 c3
-3 -13 -44 -35 -93 -23 -48 -39 -94 -36 -102 3 -8 2 -12 -3 -9 -4 3 -16 -28
-26 -69 l-17 -74 -61 2 -61 2 -2 90 c-2 94 -14 163 -39 222 -8 20 -15 37 -15
38 0 5 290 -2 295 -7z m-2420 -18 c3 -5 1 -10 -4 -10 -6 0 -11 5 -11 10 0 6 2
10 4 10 3 0 8 -4 11 -10z m837 2 c-9 -6 -6 -14 13 -30 25 -22 26 -23 23 -170
l-3 -147 -27 -1 c-16 -1 -29 2 -29 5 -1 3 -2 78 -4 166 -1 153 4 185 29 185 7
0 7 -3 -2 -8z m43 -2 c3 -5 1 -10 -4 -10 -6 0 -11 5 -11 10 0 6 2 10 4 10 3 0
8 -4 11 -10z m1790 -10 c10 -11 20 -18 24 -16 7 5 10 -25 10 -122 0 -57 3 -72
13 -66 10 5 11 4 1 -7 -7 -7 -13 -36 -13 -63 0 -49 -1 -51 -28 -50 -16 0 -33
3 -38 6 -5 4 -8 62 -8 130 2 230 2 229 39 188z m392 4 c43 -3 90 -7 105 -8 37
-4 81 -34 74 -51 -3 -10 0 -12 12 -9 14 5 14 4 3 -4 -20 -14 -22 -55 -3 -47
13 5 13 3 1 -11 -18 -22 -18 -46 1 -62 12 -9 12 -12 1 -10 -8 2 -14 -7 -16
-20 -1 -17 2 -21 13 -17 13 5 13 3 1 -11 -18 -22 -18 -46 1 -62 13 -10 13 -12
0 -10 -8 2 -14 -4 -15 -12 0 -11 -10 -14 -45 -11 -25 2 -66 4 -92 5 -26 1 -49
4 -50 6 -2 3 -13 52 -24 110 -12 58 -33 133 -46 167 -24 59 -26 79 -7 67 5 -3
43 -7 86 -10z m-2557 2 c0 -2 -8 -10 -17 -17 -16 -13 -17 -12 -4 4 13 16 21
21 21 13z m3175 -27 c22 -5 51 -12 65 -15 81 -19 104 -27 125 -47 11 -11 14
-16 6 -12 -19 11 -3 -35 18 -53 10 -8 10 -11 2 -6 -11 6 -12 3 -6 -12 10 -21
20 -182 11 -173 -3 3 -12 23 -20 45 l-14 39 0 -48 c0 -31 3 -45 10 -41 7 5 8
2 2 -7 -4 -8 -9 -20 -10 -27 -4 -21 -12 -26 -26 -16 -7 6 -40 11 -73 13 -33 2
-68 7 -77 12 -12 6 -18 6 -18 0 0 -6 -6 -8 -14 -5 -8 3 -29 7 -48 8 l-33 2 -3
159 c-2 103 1 162 8 169 8 8 13 7 19 -3 6 -9 11 -10 15 -3 4 6 12 9 19 7 24
-9 69 -14 63 -8 -4 4 -12 8 -19 9 -19 3 -63 23 -52 23 6 0 28 -4 50 -10z
m1203 -91 c0 -63 -3 -96 -9 -87 -5 8 -9 10 -9 5 0 -5 -7 -3 -15 4 -10 8 -13
23 -9 49 5 38 33 131 39 131 2 0 4 -46 3 -102z m-5783 82 c4 -6 3 -9 -2 -8 -4
1 -19 -4 -33 -11 l-25 -12 25 20 c30 24 27 24 35 11z m5265 4 c0 -8 -19 -13
-24 -6 -3 5 1 9 9 9 8 0 15 -2 15 -3z m-2520 -46 c0 -10 4 -17 9 -13 5 3 13 1
16 -5 4 -6 3 -10 -2 -9 -17 3 -24 -1 -18 -11 5 -9 8 -131 5 -200 0 -12 -29
-14 -31 -2 -1 4 -3 69 -4 144 -2 115 0 136 11 127 8 -6 14 -20 14 -31z m2467
17 c13 -9 25 -32 29 -53 4 -20 12 -40 18 -44 8 -6 8 -8 -1 -8 -7 0 -10 -20 -8
-62 1 -35 0 -67 -3 -72 -4 -8 -62 147 -62 168 0 4 7 6 14 3 10 -4 13 -1 9 9
-3 7 -10 14 -17 14 -17 0 -37 48 -22 54 18 7 20 7 43 -9z m-5164 -32 c-4 -9 6
-13 31 -13 20 0 36 -4 36 -10 0 -5 -15 -10 -32 -10 -18 0 -40 -4 -48 -10 -9
-5 -17 -5 -20 0 -3 6 -16 3 -28 -6 -16 -11 -21 -23 -18 -42 2 -15 5 -28 6 -29
2 -2 3 -6 5 -10 3 -12 17 -47 23 -57 3 -6 -9 0 -26 13 -31 22 -32 24 -32 101
0 43 4 80 10 82 5 2 30 3 54 3 31 0 42 -4 39 -12z m-431 -52 c-3 -21 -10 -28
-30 -29 -27 -1 -54 -6 -102 -17 -76 -17 -77 -17 -84 16 -3 17 -4 34 -1 39 4 7
127 27 175 29 14 0 27 6 29 13 7 20 18 -21 13 -51z m6508 32 c0 -15 2 -16 9
-3 7 9 9 3 7 -23 -2 -20 3 -48 10 -62 7 -15 9 -25 3 -25 -6 0 -8 -4 -5 -8 4
-7 12 -61 21 -142 2 -19 8 -47 14 -62 10 -27 -1 -40 -14 -18 -10 15 -35 12
-35 -5 0 -8 -6 -15 -13 -15 -9 0 -12 44 -12 190 0 105 3 190 7 190 5 0 8 -8 8
-17z m-2485 -22 c3 -5 2 -12 -3 -15 -5 -3 -9 1 -9 9 0 17 3 19 12 6z m-4555
-55 c0 -2 -7 -7 -16 -10 -8 -3 -12 -2 -9 4 6 10 25 14 25 6z m1 -40 c5 -54 2
-86 -8 -86 -6 0 -15 -5 -19 -12 -4 -7 -3 -8 4 -4 26 16 10 -14 -18 -34 l-30
-21 0 80 c0 75 1 80 23 83 38 6 47 5 48 -6z m-692 -15 c11 -7 9 -13 -8 -30
l-21 -21 0 30 c0 31 6 36 29 21z m1224 -198 c1 -52 -1 -79 -7 -73 -16 16 -18
15 -83 -40 -19 -16 -26 -12 -19 13 12 39 18 107 9 107 -4 0 -26 16 -48 35
l-40 35 57 0 c31 0 59 4 62 9 3 5 8 25 11 45 7 62 17 63 37 5 12 -33 20 -86
21 -136z m5645 102 c-3 -3 -9 2 -12 12 -6 14 -5 15 5 6 7 -7 10 -15 7 -18z
m-4925 -60 c27 0 50 -2 53 -6 2 -4 -12 -17 -31 -30 -46 -32 -49 -43 -25 -106
l20 -53 -28 17 c-62 40 -68 56 -63 160 3 71 4 75 15 48 10 -28 15 -30 59 -30z
m-2360 -7 c18 -58 10 -81 -21 -62 -16 11 -18 28 -13 97 2 32 17 17 34 -35z
m-913 12 c0 -5 -5 -10 -11 -10 -5 0 -7 5 -4 10 3 6 8 10 11 10 2 0 4 -4 4 -10z
m3060 -16 c0 -14 -3 -14 -15 -4 -8 7 -15 14 -15 16 0 2 7 4 15 4 8 0 15 -7 15
-16z m3915 1 c22 -4 51 -8 65 -9 38 -4 38 -5 36 -23 -2 -13 -12 -18 -32 -17
-66 2 -119 17 -136 36 -23 27 -23 27 5 23 12 -2 40 -7 62 -10z m-6935 -25 c0
-5 -5 -10 -11 -10 -5 0 -7 5 -4 10 3 6 8 10 11 10 2 0 4 -4 4 -10z m1551 -133
c6 -23 11 -64 10 -90 0 -27 4 -57 9 -67 6 -11 6 -21 1 -24 -5 -3 -11 1 -15 9
-8 21 -16 19 -56 -15 -36 -31 -55 -25 -41 14 5 12 7 31 6 44 -1 12 3 22 9 22
6 0 -13 22 -41 49 -29 27 -53 51 -53 54 0 6 80 -2 91 -9 11 -6 17 6 24 56 4
25 9 49 12 54 7 10 27 -36 44 -97z m383 44 c4 -7 1 -8 -8 -5 -10 4 -16 18 -15
38 l1 31 8 -27 c4 -14 11 -31 14 -37z m5506 36 c0 -5 5 -5 10 -2 6 4 18 1 27
-7 14 -11 16 -11 8 1 -6 10 -4 12 5 6 7 -4 25 -10 39 -12 29 -5 40 -7 93 -17
32 -7 36 -11 35 -34 -3 -29 -16 -33 -60 -19 -20 7 -25 12 -16 18 7 4 21 3 30
-2 10 -5 23 -9 30 -9 20 0 -4 20 -29 25 -12 2 -28 7 -35 11 -6 4 -9 4 -5 -1
15 -16 -19 -34 -48 -25 -26 9 -27 9 -4 7 14 -1 26 3 28 7 2 8 -11 12 -73 20
-11 1 -35 6 -54 10 -24 6 -36 4 -42 -5 -6 -10 -9 -6 -9 12 0 24 4 26 35 25 19
0 35 -5 35 -9z m0 -47 c0 -5 -2 -10 -4 -10 -3 0 -8 5 -11 10 -3 6 -1 10 4 10
6 0 11 -4 11 -10z m50 -5 c0 -2 -9 -3 -19 -2 -11 0 -18 5 -15 9 4 6 34 0 34
-7z m335 -35 c3 -6 -1 -7 -9 -4 -18 7 -21 14 -7 14 6 0 13 -4 16 -10z m8 -34
c4 -9 0 -13 -11 -12 -9 2 -18 8 -20 14 -5 17 25 15 31 -2z m1447 -6 c0 -5 -5
-10 -11 -10 -5 0 -7 5 -4 10 3 6 8 10 11 10 2 0 4 -4 4 -10z m35 1 c3 -5 2
-12 -3 -15 -5 -3 -9 1 -9 9 0 17 3 19 12 6z m-6405 -66 c25 0 49 -1 54 -4 5
-2 -9 -20 -32 -40 l-41 -36 14 -39 c7 -21 16 -49 19 -62 l6 -24 -26 22 c-65
55 -64 52 -63 146 1 74 2 83 12 62 10 -22 18 -26 57 -25z m6340 21 c-38 -14
-46 -13 -35 3 3 6 21 11 38 10 l32 -1 -35 -12z m369 10 c-2 -2 -22 -6 -44 -9
-28 -5 -34 -4 -20 3 19 8 73 14 64 6z m-3541 -39 c2 -18 7 -25 15 -20 9 5 9 3
1 -8 -13 -16 15 -204 40 -263 l14 -35 -33 3 c-27 3 -41 -3 -64 -24 -57 -55
-106 -81 -132 -72 -26 9 -67 8 -169 -3 -64 -6 -66 -6 -67 17 -2 22 -29 52 -56
61 -19 6 -19 297 0 297 8 0 12 3 10 8 -3 4 9 6 26 6 18 -1 51 9 77 24 46 27
125 37 275 37 58 0 60 -1 63 -28z m434 15 c9 -11 10 -14 1 -8 -10 5 -13 -16
-13 -94 0 -78 3 -100 13 -94 10 6 10 4 0 -7 -7 -7 -13 -38 -13 -68 l0 -56 -35
-2 c-30 -2 -35 1 -36 20 -3 60 -5 313 -3 317 6 13 74 7 86 -8z m438 8 c0 -3
20 -4 44 -2 l44 4 -2 -119 c-1 -94 2 -121 14 -131 12 -10 12 -12 1 -10 -10 2
-14 -9 -15 -37 l-1 -40 -125 0 c-154 -1 -154 -1 -135 34 17 35 52 169 61 241
4 30 10 57 15 60 9 7 99 6 99 0z m-1656 -42 c8 -6 8 -8 0 -8 -15 0 -15 -182 0
-192 8 -5 7 -8 -2 -8 -15 0 -14 -58 2 -79 8 -11 8 -13 -1 -7 -8 4 -13 1 -13
-8 0 -9 5 -16 11 -16 16 0 -14 -26 -31 -28 -200 -13 -216 -13 -239 11 -21 23
-21 31 -19 187 l3 164 129 3 c72 2 132 6 135 9 3 3 7 -1 10 -8 2 -7 9 -16 15
-20z m3776 7 c-6 -14 -15 -37 -22 -52 -6 -16 -11 -31 -10 -35 1 -5 -3 -8 -9
-8 -5 0 -7 -5 -3 -11 4 -7 1 -10 -7 -7 -15 5 -21 78 -7 78 5 0 7 4 4 9 -3 5 2
8 12 7 11 0 18 7 20 22 2 12 10 22 17 22 11 0 12 -6 5 -25z m-5697 -5 c3 -11
4 -20 3 -20 -2 0 -11 9 -21 20 -15 17 -16 20 -3 20 9 0 18 -9 21 -20z m4172
10 c0 -1 23 -3 52 -5 28 -1 55 -5 60 -8 5 -3 8 -33 6 -67 -2 -45 0 -59 8 -54
8 5 9 3 3 -7 -13 -21 -14 -82 0 -98 9 -12 8 -13 -2 -7 -10 6 -13 1 -11 -20 3
-40 -10 -91 -25 -97 -27 -11 -103 3 -146 26 -27 14 -60 23 -82 22 l-38 -1 0
163 0 163 88 -4 c48 -3 87 -5 87 -6z m749 -6 c3 -8 10 -12 16 -9 5 3 10 1 10
-6 0 -9 3 -9 14 0 11 10 20 10 37 1 12 -7 38 -13 58 -14 20 -1 46 -8 58 -14
14 -8 23 -8 26 -2 3 6 4 5 3 -2 -2 -7 -9 -12 -16 -10 -7 2 -41 5 -74 8 -52 4
-115 11 -123 13 -2 1 -6 1 -9 0 -9 -1 -24 23 -24 39 0 17 17 15 24 -4z m-3624
-173 c0 -93 -3 -176 -6 -185 -5 -13 -10 -11 -32 9 -26 24 -26 26 -27 177 -1
159 1 168 43 168 22 0 22 0 22 -169z m3154 162 c8 -8 12 -9 40 -12 7 0 19 -21
26 -46 7 -26 17 -42 23 -38 6 4 8 0 4 -10 -5 -13 25 -120 50 -177 8 -20 10
-27 12 -46 0 -8 5 -12 11 -9 5 3 7 0 5 -8 -4 -9 -22 -12 -63 -10 -49 2 -61 7
-84 32 -38 42 -48 89 -48 219 0 104 5 124 24 105z m1571 -3 c3 -5 1 -10 -4
-10 -6 0 -11 5 -11 10 0 6 2 10 4 10 3 0 8 -4 11 -10z m-5116 -162 c0 -133 -3
-170 -17 -200 -11 -24 -24 -38 -37 -39 -60 -4 -137 -9 -192 -12 -35 -2 -65 -2
-67 1 -3 2 8 28 24 56 83 147 96 306 25 306 -25 0 -55 -33 -55 -61 0 -9 -7
-22 -15 -29 -9 -7 -14 -19 -11 -27 3 -7 2 -13 -3 -13 -5 0 -11 -17 -15 -38 -3
-22 -15 -51 -27 -66 -22 -27 -78 -62 -80 -49 0 5 -2 77 -4 161 -2 146 -2 153
16 149 11 -3 19 -2 19 1 0 4 57 7 128 7 111 0 304 8 308 13 1 1 2 -71 3 -160z
m3641 128 c0 -3 -4 -8 -10 -11 -5 -3 -10 -1 -10 4 0 6 5 11 10 11 6 0 10 -2
10 -4z m488 -47 c24 -5 47 -7 52 -4 5 3 11 2 14 -3 2 -4 17 -9 33 -10 29 -3
68 -9 68 -12 0 -1 14 -3 30 -5 75 -10 70 -2 71 -111 2 -83 -1 -102 -17 -123
-11 -13 -19 -34 -19 -47 0 -13 -5 -24 -11 -24 -5 0 -7 -5 -3 -12 4 -6 3 -8 -4
-4 -6 3 -13 2 -17 -4 -4 -6 -12 -7 -18 -3 -15 9 -30 12 -84 15 -24 2 -43 6
-43 9 0 4 -17 6 -37 6 -76 0 -84 2 -81 20 2 14 -4 18 -28 17 l-32 0 1 157 1
157 40 -4 c23 -3 60 -10 84 -15z m712 1 c0 -5 -2 -10 -4 -10 -3 0 -8 5 -11 10
-3 6 -1 10 4 10 6 0 11 -4 11 -10z m-7800 -66 c23 -2 45 -6 48 -9 3 -3 -11
-21 -30 -41 -33 -32 -35 -38 -26 -67 6 -18 17 -45 25 -60 22 -43 10 -42 -37 1
-42 38 -42 39 -42 108 0 100 1 102 11 85 5 -7 28 -15 51 -17z m1868 -49 c18
-46 23 -50 53 -51 19 -1 45 -2 58 -3 l24 -1 -24 -20 c-66 -55 -84 -80 -57 -80
6 0 9 -3 6 -6 -4 -3 0 -21 8 -39 8 -19 14 -37 14 -40 0 -9 -31 11 -64 40 l-29
25 -26 -22 c-14 -13 -31 -29 -38 -36 -16 -19 -38 -5 -22 14 6 8 9 14 6 14 -3
0 5 35 18 78 29 96 39 140 38 170 -1 32 12 17 35 -43z m-673 -39 c2 -43 8 -83
12 -89 11 -18 15 -57 5 -57 -5 0 -24 -13 -42 -30 -33 -29 -57 -40 -45 -20 7
11 14 42 19 79 4 26 -12 61 -27 61 -5 0 -22 11 -39 25 l-30 25 61 0 c47 0 61
3 62 15 1 8 3 20 4 25 1 6 3 20 4 32 2 45 12 8 16 -66z m5445 74 c0 -5 -5 -10
-11 -10 -5 0 -7 5 -4 10 3 6 8 10 11 10 2 0 4 -4 4 -10z m-6007 -52 c32 0 41
-36 16 -67 -14 -17 -16 -28 -9 -47 6 -14 9 -37 9 -52 -1 -21 -2 -22 -6 -7 -3
11 -14 30 -26 43 -16 17 -22 39 -25 90 -2 44 0 62 6 53 5 -7 21 -13 35 -13z
m597 -24 c0 -8 -19 -13 -24 -6 -3 5 1 9 9 9 8 0 15 -2 15 -3z m3605 -4 c3 -5
1 -10 -4 -10 -6 0 -11 5 -11 10 0 6 2 10 4 10 3 0 8 -4 11 -10z m1826 -17 c13
-16 12 -17 -3 -4 -10 7 -18 15 -18 17 0 8 8 3 21 -13z m44 -43 c-3 -5 -12 -10
-18 -10 -7 0 -6 4 3 10 19 12 23 12 15 0z m-2765 -91 c0 -22 -36 -61 -61 -68
-24 -6 -83 -15 -106 -15 -13 -1 -23 -4 -23 -8 0 -4 -9 -5 -20 -3 -11 2 -25 -2
-32 -9 -7 -7 -21 -15 -32 -19 -14 -6 -17 -4 -12 9 3 8 6 19 6 24 0 5 12 10 28
12 19 2 31 12 42 35 14 31 34 39 78 34 6 -1 12 2 12 7 0 5 14 8 30 7 17 -1 32
1 35 4 2 4 15 7 29 9 21 1 26 -3 26 -19z m3073 -4 c-2 -7 -10 -12 -18 -12 -8
0 -15 5 -15 12 0 6 8 11 19 11 10 0 17 -5 14 -11z m-7472 -7 c34 1 35 -1 12
-27 -16 -20 -17 -20 -40 5 -25 27 -30 40 -12 28 7 -4 25 -7 40 -6z m753 -57
c17 -48 20 -51 55 -53 20 0 41 -2 48 -2 26 -3 23 -15 -11 -41 -39 -29 -44 -54
-23 -95 19 -36 27 -70 17 -70 -5 0 -13 6 -17 13 -4 7 -23 25 -41 40 l-33 27
-32 -30 c-18 -16 -35 -30 -39 -30 -8 0 -1 87 8 102 3 5 -18 31 -48 59 l-53 50
58 -5 c48 -4 57 -2 59 12 0 9 2 22 3 27 2 6 3 23 4 39 1 40 22 21 45 -43z
m1910 -24 c6 -35 27 -56 52 -51 14 3 35 2 46 -2 18 -5 17 -9 -16 -39 -30 -27
-36 -39 -32 -62 3 -15 10 -29 16 -31 5 -2 8 -8 5 -13 -3 -5 -1 -18 6 -30 11
-22 11 -22 -22 2 -19 13 -35 27 -37 31 -2 4 -15 8 -28 8 -14 0 -23 -4 -19 -9
3 -5 -5 -13 -17 -17 -12 -3 -28 -13 -36 -21 -21 -21 -23 -13 -8 42 17 65 12
76 -27 69 -29 -5 -30 -4 -14 9 17 14 16 16 -14 35 l-32 20 47 3 c25 2 46 1 46
-3 0 -21 30 8 36 35 4 18 9 35 10 40 1 4 2 15 3 24 1 15 4 14 17 -5 9 -13 17
-29 18 -35z m1090 -1 c-3 -8 -12 -12 -20 -9 -21 8 -17 23 6 23 13 0 18 -5 14
-14z m-389 -6 c-3 -5 -12 -10 -18 -10 -7 0 -6 4 3 10 19 12 23 12 15 0z
m-3285 -10 c0 -5 -2 -10 -4 -10 -3 0 -8 5 -11 10 -3 6 -1 10 4 10 6 0 11 -4
11 -10z m3070 2 c0 -4 -11 -9 -25 -10 -14 -1 -25 3 -25 8 0 6 11 10 25 10 14
0 25 -4 25 -8z m-3000 -26 c0 4 5 3 11 -3 10 -10 49 -107 49 -122 0 -3 -22 16
-48 42 l-48 48 -30 -23 c-16 -12 -30 -26 -32 -30 -8 -19 -19 -6 -16 20 1 15 2
36 3 47 1 17 9 21 38 23 21 2 39 5 42 7 2 3 10 0 18 -6 7 -6 13 -8 13 -3z
m2848 7 c-10 -2 -18 -9 -18 -14 0 -6 -4 -7 -10 -4 -5 3 -10 1 -10 -4 0 -6 -10
-11 -22 -11 -19 0 -17 3 12 19 19 11 42 20 50 19 10 0 10 -2 -2 -5z m202 -13
c0 -4 -13 -7 -30 -8 -32 -1 -41 14 -12 20 20 5 42 -1 42 -12z m40 16 c0 -2 -7
-6 -15 -10 -8 -3 -15 -1 -15 4 0 6 7 10 15 10 8 0 15 -2 15 -4z m272 -7 c16
-8 18 -13 8 -19 -8 -5 -19 -3 -27 5 -25 25 -15 32 19 14z m475 -2 c11 4 14 2
9 -5 -9 -14 -52 -16 -61 -3 -3 5 3 11 12 13 10 2 19 0 21 -4 2 -4 10 -4 19 -1z
m-357 -1 c0 -9 -30 -14 -35 -6 -4 6 3 10 14 10 12 0 21 -2 21 -4z m50 -8 c0
-4 -4 -8 -9 -8 -6 0 -12 4 -15 8 -3 5 1 9 9 9 8 0 15 -4 15 -9z m-816 -29 c-6
-10 -44 -18 -44 -10 0 4 3 10 6 14 8 8 44 5 38 -4z m4196 -10 c0 -12 -24 -17
-45 -10 -22 8 -212 6 -262 -2 -22 -4 -33 -1 -33 7 0 9 41 12 170 12 94 0 170
-4 170 -7z m50 1 c0 6 5 8 10 5 16 -10 11 -23 -7 -20 -10 2 -24 4 -30 4 -7 1
-13 6 -13 11 0 7 6 7 20 0 14 -8 20 -8 20 0z m-3884 -32 c-8 -4 -22 -5 -30 -2
-15 6 -15 8 1 19 13 10 21 10 31 2 11 -9 11 -12 -2 -19z m3478 20 c-3 -4 -9
-8 -15 -8 -5 0 -9 4 -9 8 0 5 7 9 15 9 8 0 12 -4 9 -9z m456 2 c0 -5 -4 -10
-10 -10 -5 0 -10 5 -10 10 0 6 5 10 10 10 6 0 10 -4 10 -10z m-4000 -20 c0 -5
-8 -9 -17 -8 -10 0 -28 -3 -40 -5 -35 -9 -27 8 10 19 34 10 47 9 47 -6z m-90
-15 c0 -7 -30 -13 -34 -7 -3 4 4 9 15 9 10 1 19 0 19 -2z m-110 -21 c0 -8 -19
-13 -24 -6 -3 5 1 9 9 9 8 0 15 -2 15 -3z m60 2 c0 -2 -7 -7 -16 -10 -8 -3
-12 -2 -9 4 6 10 25 14 25 6z m-1320 -25 c0 -8 -37 -24 -105 -45 -11 -4 7 7
40 24 68 34 65 33 65 21z m5990 -7 c0 -2 -7 -4 -15 -4 -8 0 -15 4 -15 10 0 5
7 7 15 4 8 -4 15 -8 15 -10z m-5146 -29 c-24 -16 -74 -27 -74 -16 0 12 41 30
70 30 24 1 24 1 4 -14z m-209 -25 c-3 -5 -1 -10 5 -10 6 0 8 -5 5 -10 -4 -6
-15 -8 -26 -5 -10 4 -34 -1 -52 -10 -17 -9 -26 -10 -19 -3 18 18 15 31 -5 23
-10 -4 -29 -9 -43 -11 -14 -3 -32 -7 -42 -10 -9 -3 -20 1 -24 8 -4 7 -4 10 0
7 4 -4 26 1 50 10 50 18 161 27 151 11z m125 2 c0 -4 -11 -9 -25 -10 -14 -1
-25 3 -25 8 0 6 11 10 25 10 14 0 25 -4 25 -8z m-410 -30 c0 -5 -7 -9 -15 -9
-8 0 -15 4 -15 9 0 4 7 8 15 8 8 0 15 -4 15 -8z m-57 -29 c-3 -7 -21 -15 -41
-18 -21 -3 -53 -9 -73 -13 -51 -12 -106 16 -63 32 10 4 13 2 8 -6 -5 -7 -3 -8
7 -3 7 5 29 10 48 12 20 2 37 5 38 7 2 2 21 3 42 2 26 -1 37 -5 34 -13z
m-1037 -24 c3 -5 -11 -9 -30 -9 -26 0 -34 4 -30 14 5 14 50 10 60 -5z m39 -43
c14 -10 20 -26 20 -54 0 -47 -18 -72 -51 -72 -23 0 -24 3 -24 70 0 61 2 70 18
70 10 0 27 -6 37 -14z m715 4 c0 -5 -9 -10 -21 -10 -11 0 -17 5 -14 10 3 6 13
10 21 10 8 0 14 -4 14 -10z m760 -110 l0 -95 -40 89 c-22 48 -38 91 -36 95 3
4 21 7 40 7 l36 0 0 -96z m-281 74 c3 -3 6 -48 5 -99 0 -77 -3 -98 -19 -115
-25 -28 -51 -25 -72 7 -22 34 -26 199 -5 212 14 8 81 5 91 -5z m-889 -81 l-1
-88 -34 79 c-19 44 -35 83 -35 88 0 4 16 8 35 8 l35 0 0 -87z m219 18 c6 -30
10 -56 7 -58 -2 -2 -17 -3 -33 -1 l-30 3 15 63 c9 34 19 59 23 55 4 -4 12 -32
18 -62z m1166 13 c3 -26 9 -53 12 -60 4 -10 -5 -14 -32 -14 -30 0 -35 3 -31
18 3 9 10 38 17 64 14 57 24 55 34 -8z"/>
<path d="M2075 6061 c-3 -5 -1 -12 5 -16 5 -3 10 1 10 9 0 18 -6 21 -15 7z"/>
<path d="M5311 7396 c-10 -12 -4 -15 41 -21 29 -3 67 -10 83 -15 17 -5 45 -11
63 -12 17 -1 32 -5 32 -8 0 -3 16 -7 37 -8 20 -2 41 -6 47 -9 6 -4 17 -8 26
-9 8 0 62 -11 120 -24 58 -12 114 -24 125 -25 11 -1 20 -3 20 -4 0 -3 14 -6
55 -14 14 -3 25 -6 25 -7 0 -2 36 -9 68 -13 15 -2 30 -7 34 -10 3 -4 19 -7 35
-7 15 0 28 -3 28 -7 0 -5 10 -9 23 -10 35 -3 71 -9 87 -16 8 -3 29 -8 45 -11
46 -7 88 -17 105 -23 26 -10 60 -12 60 -4 0 6 -172 52 -246 65 -12 3 -39 9
-59 15 -21 6 -42 8 -47 5 -4 -3 -8 -1 -8 3 0 5 -8 9 -17 10 -10 1 -29 4 -43 7
-14 3 -34 8 -45 10 -11 2 -72 16 -135 31 -63 15 -125 27 -137 26 -13 0 -23 4
-23 9 0 6 -3 9 -7 8 -7 -2 -101 15 -163 29 -45 11 -55 12 -82 15 -16 1 -28 5
-28 8 0 3 -16 7 -36 8 -49 4 -58 6 -65 15 -3 4 -11 1 -18 -7z"/>
<path d="M1125 7309 c-16 -10 -28 -19 -25 -20 30 -5 52 -4 56 2 2 5 12 5 22 2
15 -6 15 -4 -2 15 -11 12 -20 22 -20 21 -1 0 -14 -9 -31 -20z"/>
<path d="M532 6798 c-35 -22 -41 -35 -17 -35 8 0 15 4 15 7 0 4 14 10 30 14
17 3 30 10 30 15 0 19 -28 18 -58 -1z"/>
<path d="M206 6774 c-5 -14 -4 -15 9 -4 17 14 19 20 6 20 -5 0 -12 -7 -15 -16z"/>
<path d="M8950 4989 c0 -6 10 -10 23 -9 12 1 24 1 27 0 16 -7 60 -6 60 2 0 4
-12 9 -27 9 -16 1 -40 3 -55 5 -16 1 -28 -2 -28 -7z"/>
<path d="M2361 4961 c-33 -29 -26 -32 42 -22 4 0 7 7 7 15 0 22 -27 26 -49 7z"/>
<path d="M9080 4852 c-61 -9 -93 -77 -89 -186 l3 -61 -35 3 c-71 7 -69 3 -69
116 0 66 4 106 12 114 9 9 4 12 -22 12 -26 0 -31 -3 -22 -12 8 -8 12 -49 12
-117 l0 -106 -52 118 c-50 111 -54 117 -82 117 -23 0 -27 -3 -18 -12 8 -8 12
-46 12 -105 l0 -92 -32 6 c-18 4 -45 7 -60 7 l-28 1 0 85 c0 54 5 91 12 98 9
9 4 12 -25 12 -20 0 -37 -4 -37 -10 0 -5 5 -10 10 -10 6 0 10 -35 10 -84 l0
-83 -32 4 c-56 7 -110 12 -183 18 -38 3 -71 7 -72 9 -2 2 1 15 8 29 16 35 3
93 -24 112 -13 9 -44 15 -80 15 -51 0 -58 -2 -47 -14 11 -14 14 -43 11 -108
-1 -25 -3 -26 -43 -23 -24 2 -49 4 -55 4 -17 1 -17 113 -1 129 9 9 4 12 -26
12 -32 0 -36 -2 -27 -14 7 -8 11 -37 9 -68 l-3 -53 -35 1 c-19 1 -41 2 -48 3
-13 1 -12 97 2 119 5 9 -4 12 -30 12 -30 0 -35 -3 -26 -12 7 -7 12 -36 12 -66
l0 -53 -47 3 c-41 3 -47 6 -50 28 -10 70 -37 100 -91 100 -37 0 -77 -43 -86
-92 -6 -32 -8 -34 -48 -32 l-42 1 -1 42 c-2 59 -21 74 -102 79 -58 4 -66 3
-56 -10 7 -7 13 -29 14 -48 4 -68 9 -65 -110 -65 -60 0 -112 3 -116 7 -10 10
4 66 22 83 23 24 58 19 71 -10 21 -45 30 -29 23 38 -1 4 -21 7 -46 7 -53 0
-90 -29 -100 -77 -4 -15 -8 -33 -10 -39 -2 -6 -27 -12 -57 -13 -29 -1 -88 -4
-130 -6 l-78 -3 0 60 c0 51 2 59 17 56 10 -2 23 -14 29 -26 6 -13 15 -23 20
-23 8 1 9 10 5 56 -1 12 -18 15 -91 15 l-90 0 0 -40 c0 -47 11 -52 27 -10 7
19 18 30 30 30 16 0 19 -8 19 -61 0 -58 -1 -60 -23 -56 -13 2 -23 1 -23 -2 0
-3 -27 -7 -60 -7 l-60 -2 0 62 c0 35 5 67 12 74 9 9 5 12 -21 12 -25 0 -31 -3
-24 -12 6 -7 11 -41 12 -76 2 -61 1 -63 -20 -60 -18 2 -30 19 -53 76 -28 67
-32 72 -60 72 -23 0 -27 -3 -18 -12 7 -7 12 -40 12 -80 0 -64 -1 -68 -22 -69
-13 0 -42 -2 -65 -4 -38 -3 -41 -1 -38 21 3 29 -10 41 -22 20 -4 -8 -17 -16
-28 -18 -18 -3 -20 3 -23 60 l-3 62 36 0 c29 0 37 -5 45 -25 13 -35 27 -31 25
8 l-2 32 -77 3 c-72 3 -78 1 -71 -15 11 -25 16 -136 7 -150 -4 -6 -32 -13 -62
-15 l-55 -3 2 78 c0 46 6 84 14 93 11 14 9 15 -21 12 -33 -3 -34 -4 -60 -98
-15 -52 -31 -95 -36 -95 -5 1 -21 43 -35 95 -26 95 -26 95 -60 98 -27 3 -32 1
-21 -9 8 -9 12 -45 12 -105 0 -89 -1 -91 -22 -90 -13 1 -27 0 -32 -3 -5 -2
-41 -6 -79 -8 -60 -3 -68 -2 -65 13 2 11 13 18 32 19 68 3 103 109 51 160 -20
21 -34 25 -79 25 -55 0 -55 0 -46 -26 15 -38 13 -194 -2 -199 -7 -2 -31 -6
-53 -9 l-41 -5 0 78 c-1 118 -25 161 -91 161 -63 -1 -92 -57 -90 -175 l0 -80
-36 -6 c-31 -5 -37 -3 -37 13 0 10 -4 18 -10 18 -5 0 -10 -9 -10 -20 0 -14 -7
-20 -22 -21 -13 0 -31 -2 -40 -4 -10 -2 -18 3 -19 11 -5 113 0 236 11 249 11
13 7 15 -30 15 -38 0 -41 -2 -29 -16 17 -20 20 -254 4 -260 -5 -2 -27 -5 -47
-8 -35 -5 -38 -4 -38 19 0 14 -4 25 -10 25 -5 0 -10 -6 -10 -14 0 -24 -29 -46
-61 -46 l-29 0 0 68 c0 66 1 68 25 68 15 0 27 -7 31 -18 10 -33 24 -18 24 27
0 25 -2 45 -5 45 -3 0 -14 -9 -26 -21 -32 -32 -44 -19 -47 49 l-3 62 36 0 c28
0 38 -5 47 -25 16 -35 28 -31 28 10 l0 35 -80 0 c-77 0 -80 -1 -70 -19 15 -29
13 -266 -3 -279 -7 -6 -44 -14 -82 -17 -39 -4 -73 -9 -77 -12 -5 -2 -8 -1 -8
4 0 23 80 296 90 308 11 13 7 15 -24 15 -20 0 -36 -4 -36 -10 0 -5 4 -10 9
-10 12 0 6 -45 -23 -155 l-23 -90 -17 73 c-26 115 -30 160 -16 177 11 13 7 15
-29 15 -37 0 -40 -2 -30 -17 13 -22 78 -313 70 -314 -3 0 -26 -2 -51 -4 -45
-3 -123 -11 -215 -22 -27 -3 -68 -7 -90 -8 -22 -2 -40 -4 -40 -5 0 -1 -17 -3
-38 -6 -21 -2 -64 -6 -95 -10 -31 -3 -76 -6 -99 -6 -24 -1 -43 -4 -43 -7 0 -3
-29 -6 -64 -6 -35 0 -63 -2 -61 -5 2 -3 -15 -7 -38 -7 -41 -2 -90 -5 -227 -18
-92 -8 -162 -13 -260 -19 -47 -3 -85 -6 -85 -7 0 -1 -20 -2 -45 -4 -25 -1 -99
-5 -165 -9 -66 -4 -172 -9 -235 -11 -63 -2 -115 -5 -115 -5 0 -1 -12 -3 -27
-4 -16 -1 -28 2 -28 7 0 4 -6 5 -12 0 -14 -8 -668 -11 -668 -3 0 3 -46 5 -103
6 -149 2 -260 9 -274 17 -6 4 -14 3 -18 -2 -3 -6 -11 -8 -18 -6 -17 6 -160 21
-273 29 -22 1 -45 5 -50 7 -5 2 -29 4 -54 3 -54 -1 -237 -76 -258 -105 -7 -10
-17 -19 -22 -19 -5 0 -29 -13 -52 -29 -26 -18 -47 -26 -53 -21 -13 11 -55 2
-55 -12 0 -5 -5 -6 -12 -2 -7 5 -9 2 -5 -9 4 -10 2 -14 -6 -11 -11 4 -42 -36
-59 -78 -15 -38 32 -54 70 -25 7 6 12 6 11 1 -3 -19 1 -31 18 -50 26 -27 78
-39 101 -21 6 5 12 7 12 4 0 -3 37 12 81 34 49 24 85 37 91 31 5 -5 3 -14 -7
-22 -16 -13 -22 -55 -6 -46 5 4 7 -2 5 -11 -8 -32 10 -41 88 -48 43 -3 89 -8
103 -11 15 -3 56 -7 93 -9 37 -3 92 -7 122 -9 227 -19 782 -25 1085 -12 88 4
192 8 231 10 39 1 76 6 82 10 7 4 12 1 12 -6 0 -8 3 -9 8 -3 4 6 27 11 52 12
48 1 176 10 250 17 25 3 77 7 115 11 39 3 93 8 120 11 28 3 71 6 97 7 27 1 48
5 48 8 0 4 15 6 32 6 18 0 65 3 103 8 39 4 76 8 83 8 6 0 12 3 12 6 0 3 21 6
48 7 75 1 152 9 152 14 0 3 12 6 28 6 36 2 137 12 137 14 0 1 11 3 25 5 49 5
145 16 176 21 36 6 82 12 144 19 25 3 61 8 80 11 19 4 51 8 70 9 19 2 35 4 35
5 0 1 16 4 35 6 41 4 93 11 147 18 21 4 74 11 118 17 44 5 94 12 110 15 17 2
50 6 75 9 25 4 59 8 75 11 17 2 53 7 80 10 84 9 110 12 110 14 0 1 17 4 38 6
20 2 54 6 75 8 20 2 37 5 37 6 0 1 16 3 35 5 46 4 139 15 170 20 23 4 77 10
185 21 22 2 63 6 90 9 28 3 70 7 95 10 25 2 65 7 90 9 79 10 143 16 210 21 36
2 88 7 115 9 55 5 214 18 257 20 15 1 30 4 33 8 4 4 17 3 30 -2 13 -5 25 -6
28 -4 3 3 65 7 138 9 74 3 134 5 134 6 0 0 59 2 131 4 73 1 137 6 143 9 6 4
11 3 11 -3 0 -10 25 -9 35 1 3 3 22 2 41 -2 18 -4 34 -4 34 0 0 5 14 5 30 0
20 -6 30 -5 30 2 0 7 4 7 13 0 8 -7 18 -7 27 -2 8 5 18 6 22 4 5 -3 77 -8 161
-10 190 -6 322 -12 322 -14 0 -1 27 -3 60 -5 83 -5 184 -14 242 -21 26 -3 66
-8 88 -9 22 -2 40 -4 40 -5 0 -2 30 -6 90 -13 48 -6 164 -23 215 -33 34 -6 84
-12 155 -19 76 -8 110 -13 110 -15 0 -1 23 -3 50 -4 28 -2 69 -6 92 -10 35 -6
43 -4 52 13 18 33 13 47 -20 49 -17 1 -40 7 -51 13 -16 9 -19 8 -13 -2 6 -8 4
-10 -6 -4 -7 5 -25 10 -39 11 -24 3 -88 12 -140 20 -23 4 -49 7 -175 20 -27 3
-66 7 -85 10 -19 2 -62 6 -96 9 -73 5 -87 8 -95 18 -3 4 -86 10 -185 12 -361
9 -361 9 -361 23 0 13 -20 12 609 13 195 1 340 5 344 10 3 5 10 7 15 4 5 -4 9
-1 9 5 0 6 -15 8 -37 6 -20 -3 -41 -2 -47 1 -16 10 -56 10 -56 0 0 -5 -6 -5
-12 0 -15 12 -85 15 -345 17 -115 1 -183 5 -183 11 0 6 -5 3 -10 -5 -5 -8 -10
-10 -10 -4 0 11 -40 11 -59 0 -5 -3 -17 -3 -28 1 -32 13 44 22 147 18 53 -3
97 0 100 5 4 6 18 6 37 1 21 -6 35 -5 43 2 10 9 11 9 6 0 -5 -9 3 -13 28 -13
38 0 45 10 21 30 -8 7 -15 18 -15 25 0 11 11 12 88 6 6 -1 12 -10 12 -20 0
-16 -5 -18 -36 -11 -22 5 -34 4 -32 -2 2 -5 7 -9 12 -8 5 1 13 -4 17 -12 6 -9
9 -9 9 -1 0 8 9 9 31 3 40 -12 51 -5 43 26 -6 23 -4 24 39 23 26 -1 44 -6 42
-10 -3 -4 3 -5 14 -2 10 2 21 -1 23 -9 4 -9 -6 -13 -38 -14 -24 0 -44 4 -44 9
0 4 -4 5 -10 2 -24 -15 -6 -25 48 -24 31 0 71 -4 87 -9 30 -8 104 -6 114 4 3
3 -2 10 -11 15 -10 5 -14 17 -11 29 3 11 1 20 -3 20 -15 -1 -49 -30 -35 -30 7
0 9 -4 6 -10 -9 -15 -39 -12 -61 6 -14 11 -15 14 -3 11 9 -3 22 -1 30 4 10 6
6 9 -14 9 -35 0 -41 16 -41 105 1 86 22 135 60 135 17 0 27 -8 34 -25 5 -14
13 -25 18 -25 8 0 10 37 4 61 -3 10 -34 15 -62 11z m-3534 -57 c18 -44 19
-185 2 -186 -7 0 -32 -3 -55 -5 l-43 -4 -1 37 c-1 21 -2 45 -3 53 -2 31 13
112 25 126 6 8 22 14 36 14 18 0 28 -9 39 -35z m234 25 c10 -5 21 -21 24 -36
8 -31 -10 -94 -27 -95 -7 0 -20 -2 -29 -4 -16 -3 -18 6 -18 71 0 78 7 87 50
64z m1694 -6 c21 -20 21 -84 1 -85 -19 -2 -43 -2 -52 0 -7 1 -9 59 -4 94 2 13
39 7 55 -9z m264 -1 c5 -10 12 -34 16 -54 l7 -37 -57 1 -56 2 5 38 c3 21 11
44 17 52 17 20 57 19 68 -2z m517 1 c11 -12 15 -30 13 -63 -3 -45 -4 -46 -38
-46 l-34 0 -1 63 c-2 58 0 62 21 62 12 0 30 -7 39 -16z m-2276 -165 c-21 -12
-27 7 -27 85 l0 71 20 -74 c17 -60 18 -75 7 -82z m128 84 c-2 -55 -6 -69 -20
-71 -9 -2 -17 2 -17 8 0 12 34 130 37 130 2 0 2 -30 0 -67z m431 6 c18 -42 18
-47 3 -44 -9 2 -19 4 -23 4 -5 1 -8 22 -8 48 0 54 1 53 28 -8z m2276 -87 c7
-20 4 -22 -26 -18 l-33 3 -2 79 -2 79 28 -61 c16 -33 32 -70 35 -82z m-251
-41 c12 -1 17 -9 17 -28 l0 -28 -104 -2 c-97 -2 -104 -1 -109 18 -7 25 -33 20
-29 -5 2 -14 -8 -16 -66 -16 -49 0 -71 4 -75 13 -11 28 1 33 91 41 24 2 45 6
48 9 4 4 123 3 227 -2z m155 -10 c6 -1 12 -10 12 -22 0 -14 -5 -19 -14 -16 -7
3 -19 0 -26 -6 -10 -9 -11 -9 -5 3 6 11 5 12 -4 4 -18 -16 -71 -5 -71 15 0 27
9 31 54 26 23 -2 47 -4 54 -4z m-558 -39 c0 -10 -12 -13 -42 -11 -56 3 -70 12
-33 20 46 10 75 6 75 -9z m167 -38 c-3 -3 -12 -4 -19 -1 -8 3 -5 6 6 6 11 1
17 -2 13 -5z m-7449 -296 c-4 -17 -31 -38 -41 -31 -4 2 3 13 15 23 28 23 29
23 26 8z"/>
<path d="M993 4828 c19 -32 18 -258 -2 -282 -12 -14 -9 -16 29 -16 37 0 41 2
30 15 -17 21 -17 270 0 290 11 13 6 15 -29 15 -40 0 -41 -1 -28 -22z"/>
<path d="M1140 4841 c0 -5 4 -12 10 -16 12 -7 11 -254 -2 -277 -7 -15 -4 -18
23 -18 26 0 29 3 20 14 -8 9 -11 52 -9 127 l3 114 55 -128 c30 -70 60 -127 66
-127 8 0 12 42 12 145 0 100 4 150 12 160 11 13 7 15 -25 15 -32 0 -36 -2 -25
-15 8 -9 13 -55 15 -121 l2 -106 -52 119 c-46 105 -54 118 -78 121 -15 2 -27
-1 -27 -7z"/>
<path d="M4198 4838 c17 -17 17 -279 0 -296 -16 -16 81 -17 116 0 81 36 90
242 13 288 -37 23 -151 30 -129 8z m103 -21 c29 -22 41 -59 41 -127 0 -96 -26
-140 -83 -140 -18 0 -19 9 -19 140 0 139 0 140 23 140 12 0 29 -6 38 -13z"/>
<path d="M4460 4841 c0 -6 4 -12 9 -15 11 -7 11 -243 0 -274 -9 -23 -8 -23 69
-20 l77 3 2 38 c3 45 -11 49 -26 7 -8 -26 -15 -30 -45 -30 l-36 0 0 64 c0 72
16 90 50 56 11 -11 21 -20 23 -20 2 0 1 77 -2 90 -1 2 -8 -5 -16 -17 -8 -12
-23 -20 -32 -19 -15 2 -19 15 -21 64 l-3 62 36 0 c29 0 37 -5 45 -25 13 -35
25 -31 26 10 l1 35 -79 0 c-43 0 -78 -4 -78 -9z"/>
<path d="M9180 4540 c0 -13 12 -19 26 -13 21 8 17 19 -6 19 -11 0 -20 -3 -20
-6z"/>
<path d="M9185 4492 c-10 -11 -5 -23 7 -16 20 13 59 14 52 2 -4 -7 -2 -8 5 -4
19 12 3 25 -29 24 -16 -1 -32 -3 -35 -6z"/>
<path d="M845 4463 c-25 -7 -81 -67 -101 -110 -25 -51 4 -107 55 -109 29 -1
85 25 146 66 40 27 128 68 198 91 42 15 49 29 13 29 -14 0 -27 4 -31 9 -3 6
-17 6 -35 1 -17 -5 -30 -4 -32 1 -2 6 -21 11 -43 13 -22 2 -65 6 -95 9 -30 3
-64 3 -75 0z"/>
<path d="M7489 4105 c-3 -2 -31 -5 -62 -6 -32 -1 -61 -7 -64 -12 -3 -6 -1 -7
5 -3 6 3 13 2 17 -4 8 -13 62 -13 70 0 3 6 15 10 25 10 10 0 22 5 25 10 6 10
-7 14 -16 5z"/>
<path d="M7541 4094 c0 -11 3 -14 6 -6 3 7 2 16 -1 19 -3 4 -6 -2 -5 -13z"/>
<path d="M7610 4070 c0 -29 -8 -45 -32 -72 -55 -56 -66 -62 -84 -47 -11 9 -43
13 -103 12 -140 -3 -221 -8 -221 -14 0 -8 -124 -2 -153 7 -33 11 -67 13 -67 5
0 -4 -17 -8 -37 -10 -85 -6 -107 -9 -111 -19 -4 -12 -63 -4 -77 10 -7 7 -7 9
0 5 15 -8 60 18 46 27 -19 12 -72 10 -81 -3 -6 -10 -14 -10 -37 2 -30 16 -41
47 -16 47 7 0 13 4 13 10 0 5 -17 9 -37 7 -32 -2 -39 -6 -43 -27 -5 -25 -7
-25 -98 -25 -58 0 -91 -3 -88 -10 2 -5 9 -9 15 -8 6 2 11 -2 11 -7 0 -16 -27
-12 -34 5 -6 16 -35 10 -48 -9 -6 -8 -10 -8 -15 -1 -22 29 -136 43 -172 21 -6
-4 -11 -2 -11 5 0 8 -4 8 -15 -1 -8 -7 -22 -10 -30 -6 -8 3 -15 2 -15 -2 0 -4
-12 -7 -27 -8 -26 -1 -55 -4 -147 -19 -22 -4 -54 -8 -70 -10 -17 -2 -31 -4
-31 -5 0 -2 -14 -4 -90 -13 -79 -10 -96 -15 -116 -33 -9 -8 -34 -19 -53 -24
-30 -7 -38 -5 -46 10 -12 22 -54 16 -46 -7 5 -11 -9 -13 -74 -10 -44 2 -80 0
-80 -5 0 -5 -4 -7 -9 -3 -5 3 -12 1 -15 -4 -3 -5 -21 -8 -38 -6 -18 1 -42 -1
-53 -5 -11 -4 -53 -11 -94 -14 -40 -4 -82 -11 -92 -16 -10 -6 -33 -10 -53 -10
-19 0 -41 -6 -48 -12 -7 -7 -22 -14 -33 -15 -22 -2 -67 -10 -105 -19 -14 -3
-38 -8 -55 -11 -16 -2 -41 -7 -55 -9 -14 -3 -41 -7 -60 -10 -19 -3 -42 -8 -50
-10 -8 -3 -31 -8 -50 -10 -36 -5 -71 -11 -80 -14 -3 -1 -8 -2 -12 -1 -5 0 -8
-5 -8 -12 0 -7 -8 -13 -17 -14 -10 0 -43 -3 -73 -7 -107 -12 -146 -16 -211
-20 -137 -10 -198 -19 -228 -35 -11 -6 -27 -8 -35 -5 -9 3 -16 1 -16 -5 0 -7
-14 -11 -32 -11 -35 2 -91 -5 -148 -16 -19 -3 -44 -8 -55 -9 -11 -2 -20 -4
-20 -5 0 -1 -16 -3 -35 -4 -19 -2 -46 -8 -60 -14 -28 -12 -96 -26 -122 -25
-10 0 -18 -3 -18 -7 0 -9 -79 -30 -113 -30 -14 0 -30 -7 -38 -16 -7 -8 -21
-13 -31 -11 -10 3 -18 2 -18 -3 0 -4 -12 -8 -27 -8 -48 0 -83 -6 -83 -15 0 -4
-4 -6 -8 -3 -4 2 -27 -4 -50 -14 -23 -11 -42 -16 -42 -12 0 4 -4 3 -8 -3 -8
-11 -69 -36 -89 -38 -7 0 -13 -4 -13 -8 0 -7 -53 -22 -66 -19 -4 1 -10 -3 -13
-9 -4 -6 -19 -12 -34 -13 -15 -1 -27 -5 -27 -8 0 -11 -57 -70 -67 -70 -6 0
-14 -7 -17 -16 -5 -13 -1 -15 20 -10 18 5 25 3 22 -5 -2 -7 -15 -14 -29 -16
-13 -2 -25 -8 -27 -13 -2 -6 -12 -10 -23 -10 -10 0 -19 -5 -19 -12 0 -6 -2 -9
-6 -6 -3 3 -35 -7 -72 -22 -36 -16 -70 -26 -74 -24 -4 3 -8 0 -8 -5 0 -6 -10
-11 -22 -11 -17 0 -11 7 25 30 40 25 73 69 69 91 0 3 34 25 76 49 42 24 79 47
80 52 2 4 10 8 17 8 8 0 17 4 20 10 7 11 -26 0 -75 -25 -16 -8 -42 -20 -57
-26 -28 -10 -28 -10 -8 9 11 11 22 19 25 19 3 0 63 28 135 63 71 34 134 63
140 64 5 1 21 8 34 15 13 7 40 14 59 16 20 1 38 7 40 13 2 7 10 12 18 12 8 0
14 4 14 9 0 5 12 10 28 10 15 0 36 2 47 5 11 2 30 5 41 5 13 1 21 7 20 15 0 8
3 14 9 13 5 -1 9 -6 7 -10 -1 -5 16 -7 40 -4 23 3 44 10 46 16 5 14 32 14 32
0 0 -5 5 -7 12 -3 20 13 80 16 73 4 -4 -6 3 -8 17 -6 13 3 31 5 41 5 11 1 17
9 17 25 0 20 -4 24 -22 21 -61 -11 -148 -21 -258 -30 -19 -2 -37 -4 -40 -5 -3
-1 -8 -2 -13 -1 -4 0 -16 -8 -28 -20 -11 -11 -24 -17 -27 -13 -4 3 -1 9 6 11
22 8 12 20 -15 17 -16 -1 -28 -3 -28 -4 0 -1 -20 -3 -45 -4 -25 -2 -88 -6
-140 -10 -315 -24 -422 -27 -795 -28 -309 -1 -410 2 -610 17 -129 10 -269 23
-300 29 -32 5 -92 -77 -100 -137 -7 -52 25 -77 93 -73 28 2 52 1 52 -1 0 -3
-24 -29 -53 -57 -29 -29 -59 -67 -66 -84 -12 -28 -11 -35 6 -64 17 -29 24 -33
61 -32 31 2 42 -2 42 -13 0 -8 4 -12 10 -8 5 3 7 12 4 19 -4 9 8 21 30 31 20
10 36 20 36 24 0 6 17 14 75 36 11 5 23 9 27 9 3 1 10 4 14 9 4 4 16 7 26 7
10 0 18 5 18 10 0 6 5 10 11 10 5 0 31 9 56 21 25 11 48 18 51 15 7 -8 -28
-35 -45 -36 -7 0 -13 -4 -13 -10 0 -5 -6 -10 -14 -10 -7 0 -35 -10 -62 -22
-27 -12 -52 -21 -55 -20 -4 0 -23 -14 -43 -34 -19 -19 -39 -34 -43 -34 -18 0
-43 -12 -43 -21 0 -5 3 -8 8 -8 4 1 9 0 12 -1 3 -1 28 -3 55 -5 28 -1 50 -3
50 -5 0 -1 50 -3 111 -4 61 -2 115 -5 120 -8 16 -8 809 3 809 12 0 1 32 3 70
5 106 4 310 20 310 24 0 1 29 4 65 6 36 2 85 6 110 10 25 3 65 8 90 11 25 2
61 7 81 9 54 8 129 17 169 20 19 2 35 4 35 5 0 2 24 6 85 14 30 3 73 9 95 12
22 4 50 7 63 7 12 1 22 3 22 7 0 3 12 6 28 6 33 1 108 12 142 20 14 3 41 7 60
9 19 2 46 6 60 9 14 4 43 9 65 11 22 3 49 8 59 12 11 3 33 7 50 8 17 2 41 6
53 8 11 3 43 9 70 13 26 3 57 8 68 11 11 2 29 6 41 8 11 3 34 6 50 9 16 2 40
6 54 9 14 4 39 9 55 11 17 3 44 8 60 11 17 4 41 8 55 10 14 2 25 4 25 5 0 1 9
3 20 4 11 2 36 6 55 9 19 4 49 9 65 12 17 3 53 10 81 16 28 5 61 12 75 14 13
3 46 9 74 14 27 5 53 7 57 5 5 -3 8 -1 8 4 0 5 6 9 13 9 14 0 80 11 117 18 78
16 120 24 169 30 14 2 26 5 26 6 0 1 9 3 20 5 22 3 45 7 155 29 14 3 39 7 55
10 17 2 40 6 51 9 12 2 37 7 55 10 19 3 48 8 64 12 17 3 39 7 50 9 38 5 160
26 180 30 11 2 29 6 41 9 12 2 43 7 70 11 27 3 58 8 69 10 11 2 28 4 39 4 12
1 16 6 12 17 -3 8 -2 12 3 9 5 -3 17 5 25 17 9 12 26 23 38 25 13 2 64 11 113
19 50 9 104 18 120 19 17 2 30 4 30 5 0 2 25 7 80 14 28 4 68 10 90 13 22 3
52 6 68 7 15 0 27 3 27 6 0 7 89 2 108 -5 6 -2 12 1 12 7 0 6 5 7 13 1 6 -4
113 -7 237 -6 253 2 320 5 338 17 7 4 12 2 12 -4 0 -6 5 -8 11 -4 6 3 52 8
102 10 51 1 92 4 92 5 0 1 172 3 383 4 210 0 382 -3 382 -8 0 -4 5 -5 12 -1
15 10 68 11 68 2 0 -4 10 -4 22 1 13 4 35 5 50 0 16 -4 28 -5 28 -1 0 4 20 7
45 7 25 0 45 -3 45 -7 0 -4 6 -5 13 -3 6 3 30 6 52 8 21 2 41 9 43 15 3 11
-18 10 -52 -4 -12 -5 -17 -4 -13 2 6 10 -36 14 -200 17 -46 1 -83 6 -83 10 0
4 -10 3 -21 -4 -16 -8 -20 -8 -14 1 6 9 2 9 -14 1 -11 -7 -21 -8 -21 -4 0 5
-126 8 -280 8 -155 0 -288 3 -298 7 -9 4 -15 7 -12 8 3 1 88 4 190 5 102 2
185 4 185 5 0 7 146 2 149 -5 3 -7 5 -7 5 0 1 10 119 11 189 1 17 -2 32 0 32
6 0 5 5 6 11 2 16 -9 199 -15 199 -6 0 4 -15 7 -32 7 -18 0 -42 3 -54 6 -11 4
-28 3 -37 -2 -9 -6 -17 -6 -17 -2 0 5 -81 8 -180 8 -99 0 -180 4 -180 8 0 5
-5 5 -11 1 -6 -3 -87 -7 -180 -8 -92 -1 -171 -5 -175 -9 -4 -3 -15 -2 -25 4
-14 7 -19 6 -19 -2 0 -8 -4 -9 -13 0 -8 6 -17 8 -20 4 -11 -10 -200 -10 -221
0 -10 5 -16 5 -13 0 3 -4 -48 -8 -114 -9 -65 0 -119 3 -119 8 0 4 3 8 8 9 4 0
16 2 27 4 32 6 107 17 143 21 17 2 49 6 70 9 142 19 174 20 442 10 163 -5 284
-11 445 -21 61 -4 131 -7 158 -8 26 0 47 -3 47 -6 0 -3 30 -5 68 -6 37 0 103
-4 147 -8 44 -4 107 -10 140 -13 33 -3 75 -5 93 -5 17 1 32 -2 32 -6 0 -9 156
-9 166 1 4 4 -2 8 -14 8 -23 2 -40 5 -44 9 -2 1 -14 3 -28 4 -14 2 -45 7 -70
11 -25 4 -54 9 -65 11 -11 1 -33 5 -50 7 -16 3 -52 8 -79 12 -27 3 -52 8 -56
10 -3 2 -33 6 -65 10 -33 3 -69 8 -80 9 -11 2 -45 8 -75 12 -50 7 -67 9 -122
13 -10 0 -18 6 -18 12 0 5 3 8 8 6 4 -3 45 -8 92 -11 47 -3 95 -8 107 -10 12
-3 53 -7 90 -11 37 -3 82 -8 98 -10 209 -29 307 -25 270 11 -7 8 -18 14 -23
14 -5 0 -23 7 -41 16 -17 8 -62 17 -99 19 -75 4 -207 20 -207 25 0 2 -50 7
-112 12 -24 1 -43 5 -43 8 0 3 -30 6 -68 8 -37 1 -78 5 -92 8 -14 3 -52 7 -85
9 -98 7 -155 14 -165 20 -6 3 -10 1 -10 -5 0 -6 -5 -8 -12 -4 -7 5 -151 9
-320 10 l-308 2 0 -38z m902 -74 c6 4 8 2 5 -4 -4 -5 -16 -8 -28 -5 -16 4 -17
8 -7 14 7 5 14 4 16 -1 2 -6 9 -7 14 -4z m-2062 -46 c0 -5 -2 -10 -4 -10 -3 0
-8 5 -11 10 -3 6 -1 10 4 10 6 0 11 -4 11 -10z m160 1 c0 -9 -55 -9 -63 -1 -3
3 10 6 29 7 19 1 34 -2 34 -6z m-494 -24 c2 -17 -34 -16 -41 1 -2 7 -1 10 4 7
5 -3 13 0 16 6 8 12 18 5 21 -14z m574 8 c0 -23 -27 -29 -45 -12 -16 16 -16
16 38 26 4 0 7 -6 7 -14z m-635 -5 c3 -5 0 -10 -7 -11 -7 0 -21 -2 -30 -4 -10
-2 -18 1 -18 5 0 7 16 14 42 19 4 0 10 -3 13 -9z m-65 -10 c0 -5 -5 -10 -11
-10 -5 0 -7 5 -4 10 3 6 8 10 11 10 2 0 4 -4 4 -10z m-322 -32 c-2 -6 -15 -13
-29 -14 l-24 -4 25 15 c31 18 33 18 28 3z m1632 -6 c0 -4 -9 -8 -19 -8 -11 0
-17 4 -15 8 3 4 12 8 20 8 8 0 14 -4 14 -8z m450 -31 c0 -11 -39 -7 -44 5 -3
7 5 9 20 6 13 -2 24 -7 24 -11z m-57 2 c3 -5 -12 -8 -33 -8 -21 0 -36 3 -33 8
2 4 17 7 33 7 16 0 31 -3 33 -7z m-5813 -437 c0 -10 -9 -14 -27 -12 -47 6 -49
7 -28 16 31 13 55 11 55 -4z m-250 -35 c0 -5 -8 -12 -17 -15 -10 -3 -36 -22
-58 -41 -22 -19 -46 -39 -52 -45 -10 -8 -13 -7 -13 4 0 14 -8 15 -57 1 -48
-12 -90 -24 -109 -30 -15 -5 -21 -2 -21 9 0 13 40 32 60 28 4 -1 7 2 7 7 0 5
8 11 18 14 9 3 60 21 112 40 100 37 130 43 130 28z"/>
<path d="M7270 4085 c0 -6 7 -12 15 -12 8 0 15 4 15 9 0 5 6 6 13 2 6 -4 9 -3
4 1 -12 13 -47 13 -47 0z"/>
<path d="M7095 4081 c-2 -2 -35 -5 -72 -8 -105 -6 -211 -15 -333 -28 -27 -2
-39 -30 -21 -48 8 -8 11 -8 11 0 0 12 134 29 278 36 12 1 22 3 22 7 0 3 19 6
43 7 23 0 60 4 82 7 40 7 120 17 143 18 6 1 12 5 12 9 0 7 -158 8 -165 0z"/>
<path d="M6520 4001 c0 -6 9 -9 20 -8 11 1 20 5 20 9 0 4 -9 8 -20 8 -11 0
-20 -4 -20 -9z"/>
<path d="M5512 3893 c-6 -3 -10 -9 -6 -14 7 -12 44 -12 44 0 0 11 -21 19 -38
14z"/>
<path d="M8733 3866 c2 -5 33 -10 70 -11 37 -1 64 2 60 6 -12 11 -134 17 -130
5z"/>
<path d="M8780 3818 c0 -5 11 -8 25 -8 14 0 25 4 25 9 0 5 -11 8 -25 7 -14 0
-25 -4 -25 -8z"/>
<path d="M8845 3821 c-2 -5 6 -8 18 -7 12 1 25 -3 29 -9 5 -6 8 -5 8 3 0 8 5
10 13 6 6 -4 8 -3 4 1 -10 12 -65 16 -72 6z"/>
<path d="M6120 3639 c0 -5 5 -7 10 -4 6 3 10 8 10 11 0 2 -4 4 -10 4 -5 0 -10
-5 -10 -11z"/>
<path d="M3420 3572 c0 -6 -9 -8 -20 -5 -11 3 -20 0 -20 -6 0 -13 29 -14 49
-2 9 6 10 11 2 15 -6 4 -11 3 -11 -2z"/>
<path d="M3290 2720 c-19 -5 -38 -6 -42 -4 -5 3 -8 0 -8 -6 0 -6 -3 -9 -7 -7
-5 3 -33 1 -63 -4 -101 -17 -161 -25 -235 -34 -27 -3 -63 -8 -80 -11 -62 -12
-81 -14 -135 -18 -30 -2 -55 -5 -55 -6 0 -1 -13 -3 -30 -5 -16 -1 -57 -6 -90
-9 -88 -10 -142 -15 -220 -21 -38 -3 -92 -7 -120 -10 -89 -8 -553 -27 -620
-25 -5 0 -69 2 -142 4 l-131 3 -4 -39 c-4 -38 19 -78 35 -61 4 3 7 2 7 -4 0
-6 17 -8 41 -6 33 3 40 1 36 -10 -8 -22 6 -35 42 -42 19 -3 37 -7 40 -9 3 -2
33 -7 66 -10 33 -4 76 -10 95 -13 46 -9 50 -10 53 -13 9 -9 130 -5 165 5 23 7
42 11 42 9 0 -3 14 2 30 11 17 9 30 13 30 10 0 -2 15 3 33 13 64 36 72 36 45
0 -58 -78 -74 -150 -40 -181 9 -9 35 -17 57 -18 50 -3 145 10 145 20 0 4 8 8
18 9 9 1 26 3 37 4 11 2 26 9 33 16 8 7 17 10 22 7 5 -3 10 -2 12 2 3 8 276
145 403 204 181 83 288 129 300 129 7 0 15 3 17 8 2 4 57 29 123 56 66 26 124
52 130 57 5 5 7 9 5 8 -3 -1 -21 -5 -40 -9z"/>
</g>
</svg>
